<svg xmlns="http://www.w3.org/2000/svg" xmlns:xlink="http://www.w3.org/1999/xlink" width="500" zoomAndPan="magnify" viewBox="0 0 375 374.999991" height="500" preserveAspectRatio="xMidYMid meet" version="1.0"><defs><clipPath id="920e63b308"><path d="M 60.324219 18.117188 L 279 18.117188 L 279 357 L 60.324219 357 Z M 60.324219 18.117188 " clip-rule="nonzero"/></clipPath><clipPath id="a1c999d71e"><path d="M 108 114 L 326.574219 114 L 326.574219 284 L 108 284 Z M 108 114 " clip-rule="nonzero"/></clipPath></defs><g clip-path="url(#920e63b308)"><path fill="#3cacae" d="M 266.085938 296.378906 C 265.292969 296.378906 264.503906 296.457031 263.726562 296.613281 C 262.945312 296.769531 262.191406 296.996094 261.457031 297.300781 C 260.722656 297.605469 260.023438 297.976562 259.363281 298.417969 C 258.703125 298.859375 258.09375 299.363281 257.53125 299.925781 C 256.96875 300.484375 256.46875 301.097656 256.027344 301.757812 C 255.585938 302.417969 255.210938 303.113281 254.910156 303.847656 C 254.605469 304.582031 254.375 305.339844 254.21875 306.117188 C 254.066406 306.898438 253.988281 307.683594 253.988281 308.480469 C 253.988281 309.269531 253.949219 310.0625 253.871094 310.851562 C 253.792969 311.640625 253.675781 312.421875 253.523438 313.199219 C 253.367188 313.976562 253.175781 314.746094 252.945312 315.503906 C 252.714844 316.261719 252.449219 317.007812 252.144531 317.738281 C 251.84375 318.472656 251.503906 319.1875 251.128906 319.886719 C 250.757812 320.585938 250.351562 321.261719 249.910156 321.921875 C 249.46875 322.582031 248.996094 323.214844 248.496094 323.828125 C 247.992188 324.441406 247.460938 325.027344 246.898438 325.589844 C 246.339844 326.148438 245.753906 326.679688 245.140625 327.183594 C 244.527344 327.6875 243.894531 328.15625 243.234375 328.597656 C 242.574219 329.039062 241.894531 329.445312 241.195312 329.820312 C 240.5 330.191406 239.78125 330.53125 239.050781 330.832031 C 238.316406 331.136719 237.574219 331.402344 236.816406 331.632812 C 236.054688 331.863281 235.289062 332.054688 234.511719 332.210938 C 233.734375 332.367188 232.949219 332.480469 232.164062 332.558594 C 231.375 332.636719 230.582031 332.675781 229.789062 332.675781 L 108.808594 332.675781 C 108.015625 332.675781 107.222656 332.636719 106.433594 332.558594 C 105.648438 332.480469 104.863281 332.367188 104.085938 332.210938 C 103.308594 332.054688 102.542969 331.863281 101.785156 331.632812 C 101.023438 331.402344 100.28125 331.136719 99.546875 330.832031 C 98.816406 330.53125 98.101562 330.191406 97.402344 329.820312 C 96.703125 329.445312 96.023438 329.039062 95.363281 328.597656 C 94.707031 328.15625 94.070312 327.6875 93.457031 327.183594 C 92.84375 326.679688 92.257812 326.148438 91.699219 325.589844 C 91.136719 325.027344 90.605469 324.441406 90.101562 323.828125 C 89.601562 323.214844 89.128906 322.582031 88.6875 321.921875 C 88.25 321.261719 87.839844 320.585938 87.46875 319.886719 C 87.09375 319.1875 86.753906 318.472656 86.453125 317.738281 C 86.148438 317.007812 85.882812 316.261719 85.652344 315.503906 C 85.421875 314.746094 85.230469 313.976562 85.074219 313.199219 C 84.921875 312.421875 84.804688 311.640625 84.726562 310.851562 C 84.648438 310.0625 84.609375 309.269531 84.609375 308.480469 L 84.609375 66.511719 C 84.609375 65.71875 84.648438 64.929688 84.726562 64.140625 C 84.804688 63.351562 84.921875 62.570312 85.074219 61.792969 C 85.230469 61.015625 85.421875 60.246094 85.652344 59.488281 C 85.882812 58.730469 86.148438 57.984375 86.453125 57.253906 C 86.753906 56.519531 87.09375 55.804688 87.46875 55.105469 C 87.839844 54.40625 88.25 53.726562 88.6875 53.070312 C 89.128906 52.410156 89.601562 51.773438 90.101562 51.160156 C 90.605469 50.550781 91.136719 49.960938 91.699219 49.402344 C 92.257812 48.84375 92.84375 48.308594 93.457031 47.808594 C 94.070312 47.304688 94.707031 46.832031 95.363281 46.394531 C 96.023438 45.953125 96.703125 45.546875 97.402344 45.171875 C 98.101562 44.796875 98.816406 44.460938 99.546875 44.15625 C 100.28125 43.855469 101.023438 43.585938 101.785156 43.355469 C 102.542969 43.128906 103.308594 42.933594 104.085938 42.78125 C 104.863281 42.625 105.648438 42.507812 106.433594 42.433594 C 107.222656 42.355469 108.015625 42.316406 108.808594 42.316406 L 229.789062 42.316406 C 230.582031 42.316406 231.375 42.355469 232.164062 42.433594 C 232.949219 42.507812 233.734375 42.625 234.511719 42.78125 C 235.289062 42.933594 236.054688 43.128906 236.816406 43.355469 C 237.574219 43.585938 238.316406 43.855469 239.050781 44.15625 C 239.78125 44.460938 240.5 44.796875 241.195312 45.171875 C 241.894531 45.546875 242.574219 45.953125 243.234375 46.394531 C 243.894531 46.832031 244.527344 47.304688 245.140625 47.808594 C 245.753906 48.308594 246.339844 48.84375 246.898438 49.402344 C 247.460938 49.960938 247.992188 50.550781 248.496094 51.160156 C 248.996094 51.773438 249.46875 52.410156 249.910156 53.070312 C 250.351562 53.726562 250.757812 54.40625 251.128906 55.105469 C 251.503906 55.804688 251.84375 56.519531 252.144531 57.253906 C 252.449219 57.984375 252.714844 58.730469 252.945312 59.488281 C 253.175781 60.246094 253.367188 61.015625 253.523438 61.792969 C 253.675781 62.570312 253.792969 63.351562 253.871094 64.140625 C 253.949219 64.929688 253.988281 65.71875 253.988281 66.511719 L 253.988281 102.808594 C 253.988281 103.601562 254.066406 104.386719 254.21875 105.167969 C 254.375 105.945312 254.605469 106.703125 254.910156 107.4375 C 255.210938 108.171875 255.585938 108.867188 256.027344 109.527344 C 256.46875 110.1875 256.96875 110.800781 257.53125 111.363281 C 258.09375 111.921875 258.703125 112.425781 259.363281 112.867188 C 260.023438 113.308594 260.722656 113.679688 261.457031 113.984375 C 262.191406 114.289062 262.945312 114.519531 263.726562 114.671875 C 264.503906 114.828125 265.292969 114.90625 266.085938 114.90625 C 266.878906 114.90625 267.667969 114.828125 268.445312 114.671875 C 269.226562 114.519531 269.980469 114.289062 270.714844 113.984375 C 271.449219 113.679688 272.148438 113.308594 272.808594 112.867188 C 273.46875 112.425781 274.078125 111.921875 274.640625 111.363281 C 275.203125 110.800781 275.703125 110.1875 276.144531 109.527344 C 276.585938 108.867188 276.960938 108.171875 277.261719 107.4375 C 277.566406 106.703125 277.796875 105.945312 277.953125 105.167969 C 278.105469 104.386719 278.183594 103.601562 278.183594 102.808594 L 278.183594 66.511719 C 278.183594 64.925781 278.105469 63.347656 277.949219 61.769531 C 277.796875 60.191406 277.5625 58.625 277.253906 57.070312 C 276.945312 55.515625 276.558594 53.980469 276.101562 52.464844 C 275.640625 50.949219 275.105469 49.457031 274.5 47.992188 C 273.894531 46.527344 273.21875 45.097656 272.46875 43.699219 C 271.722656 42.300781 270.910156 40.945312 270.027344 39.625 C 269.148438 38.308594 268.203125 37.035156 267.199219 35.8125 C 266.195312 34.585938 265.128906 33.414062 264.011719 32.292969 C 262.890625 31.171875 261.714844 30.109375 260.492188 29.101562 C 259.265625 28.097656 257.996094 27.15625 256.675781 26.273438 C 255.359375 25.394531 254 24.578125 252.601562 23.832031 C 251.207031 23.085938 249.773438 22.410156 248.308594 21.800781 C 246.847656 21.195312 245.355469 20.664062 243.839844 20.203125 C 242.320312 19.742188 240.785156 19.359375 239.230469 19.046875 C 237.675781 18.738281 236.113281 18.507812 234.535156 18.351562 C 232.957031 18.195312 231.375 18.117188 229.789062 18.117188 L 108.808594 18.117188 C 107.222656 18.117188 105.640625 18.195312 104.0625 18.351562 C 102.488281 18.507812 100.921875 18.738281 99.367188 19.046875 C 97.8125 19.359375 96.277344 19.742188 94.757812 20.203125 C 93.242188 20.664062 91.753906 21.195312 90.289062 21.800781 C 88.824219 22.410156 87.390625 23.085938 85.996094 23.832031 C 84.597656 24.578125 83.238281 25.394531 81.921875 26.273438 C 80.601562 27.15625 79.332031 28.097656 78.105469 29.101562 C 76.882812 30.109375 75.707031 31.171875 74.589844 32.292969 C 73.46875 33.414062 72.402344 34.585938 71.398438 35.8125 C 70.394531 37.035156 69.449219 38.308594 68.570312 39.625 C 67.6875 40.945312 66.875 42.300781 66.128906 43.699219 C 65.382812 45.097656 64.703125 46.527344 64.097656 47.992188 C 63.492188 49.457031 62.957031 50.949219 62.496094 52.464844 C 62.039062 53.980469 61.652344 55.515625 61.34375 57.070312 C 61.035156 58.625 60.800781 60.191406 60.648438 61.769531 C 60.492188 63.347656 60.414062 64.925781 60.414062 66.511719 L 60.414062 308.480469 C 60.414062 310.0625 60.492188 311.644531 60.648438 313.222656 C 60.800781 314.800781 61.035156 316.367188 61.34375 317.921875 C 61.652344 319.472656 62.039062 321.011719 62.496094 322.527344 C 62.957031 324.042969 63.492188 325.535156 64.097656 327 C 64.703125 328.460938 65.382812 329.894531 66.128906 331.292969 C 66.875 332.6875 67.6875 334.046875 68.570312 335.363281 C 69.449219 336.683594 70.394531 337.953125 71.398438 339.179688 C 72.402344 340.40625 73.46875 341.578125 74.589844 342.699219 C 75.707031 343.820312 76.882812 344.882812 78.105469 345.886719 C 79.332031 346.894531 80.601562 347.835938 81.921875 348.714844 C 83.238281 349.597656 84.597656 350.410156 85.996094 351.15625 C 87.390625 351.90625 88.824219 352.582031 90.289062 353.1875 C 91.753906 353.796875 93.242188 354.328125 94.757812 354.789062 C 96.277344 355.25 97.8125 355.632812 99.367188 355.941406 C 100.921875 356.25 102.488281 356.484375 104.0625 356.640625 C 105.640625 356.792969 107.222656 356.871094 108.808594 356.871094 L 229.789062 356.871094 C 231.375 356.871094 232.957031 356.792969 234.535156 356.640625 C 236.113281 356.484375 237.675781 356.25 239.230469 355.941406 C 240.785156 355.632812 242.320312 355.25 243.839844 354.789062 C 245.355469 354.328125 246.847656 353.796875 248.308594 353.1875 C 249.773438 352.582031 251.207031 351.90625 252.601562 351.15625 C 254 350.410156 255.359375 349.597656 256.675781 348.714844 C 257.996094 347.835938 259.265625 346.894531 260.492188 345.886719 C 261.714844 344.882812 262.890625 343.820312 264.011719 342.699219 C 265.128906 341.578125 266.195312 340.40625 267.199219 339.179688 C 268.203125 337.953125 269.148438 336.683594 270.027344 335.363281 C 270.910156 334.046875 271.722656 332.6875 272.46875 331.292969 C 273.21875 329.894531 273.894531 328.460938 274.5 327 C 275.105469 325.535156 275.640625 324.042969 276.101562 322.527344 C 276.558594 321.011719 276.945312 319.472656 277.253906 317.921875 C 277.5625 316.367188 277.796875 314.800781 277.949219 313.222656 C 278.105469 311.644531 278.183594 310.0625 278.183594 308.480469 C 278.183594 307.683594 278.105469 306.898438 277.953125 306.117188 C 277.796875 305.339844 277.566406 304.582031 277.261719 303.847656 C 276.960938 303.113281 276.585938 302.417969 276.144531 301.757812 C 275.703125 301.097656 275.203125 300.484375 274.640625 299.925781 C 274.078125 299.363281 273.46875 298.859375 272.808594 298.417969 C 272.148438 297.976562 271.449219 297.605469 270.714844 297.300781 C 269.980469 296.996094 269.226562 296.769531 268.445312 296.613281 C 267.667969 296.457031 266.878906 296.378906 266.085938 296.378906 Z M 266.085938 296.378906 " fill-opacity="1" fill-rule="nonzero"/></g><path fill="#3cacae" d="M 157.199219 54.414062 C 156.40625 54.414062 155.621094 54.492188 154.839844 54.644531 C 154.0625 54.800781 153.304688 55.03125 152.570312 55.335938 C 151.835938 55.636719 151.140625 56.011719 150.480469 56.453125 C 149.820312 56.894531 149.207031 57.394531 148.644531 57.957031 C 148.085938 58.519531 147.582031 59.128906 147.140625 59.789062 C 146.699219 60.449219 146.328125 61.148438 146.023438 61.882812 C 145.71875 62.617188 145.488281 63.371094 145.335938 64.152344 C 145.179688 64.929688 145.101562 65.71875 145.101562 66.511719 C 145.101562 67.304688 145.179688 68.09375 145.335938 68.871094 C 145.488281 69.652344 145.71875 70.40625 146.023438 71.140625 C 146.328125 71.875 146.699219 72.574219 147.140625 73.234375 C 147.582031 73.894531 148.085938 74.503906 148.644531 75.066406 C 149.207031 75.628906 149.820312 76.128906 150.480469 76.570312 C 151.140625 77.011719 151.835938 77.386719 152.570312 77.6875 C 153.304688 77.992188 154.0625 78.222656 154.839844 78.378906 C 155.621094 78.53125 156.40625 78.609375 157.199219 78.609375 L 181.398438 78.609375 C 182.191406 78.609375 182.976562 78.53125 183.757812 78.378906 C 184.535156 78.222656 185.292969 77.992188 186.027344 77.6875 C 186.761719 77.386719 187.457031 77.011719 188.117188 76.570312 C 188.78125 76.128906 189.390625 75.628906 189.953125 75.066406 C 190.515625 74.503906 191.015625 73.894531 191.457031 73.234375 C 191.898438 72.574219 192.269531 71.875 192.574219 71.140625 C 192.878906 70.40625 193.109375 69.652344 193.261719 68.871094 C 193.417969 68.09375 193.496094 67.304688 193.496094 66.511719 C 193.496094 65.71875 193.417969 64.929688 193.261719 64.152344 C 193.109375 63.371094 192.878906 62.617188 192.574219 61.882812 C 192.269531 61.148438 191.898438 60.449219 191.457031 59.789062 C 191.015625 59.128906 190.515625 58.519531 189.953125 57.957031 C 189.390625 57.394531 188.78125 56.894531 188.117188 56.453125 C 187.457031 56.011719 186.761719 55.636719 186.027344 55.335938 C 185.292969 55.03125 184.535156 54.800781 183.757812 54.644531 C 182.976562 54.492188 182.191406 54.414062 181.398438 54.414062 Z M 157.199219 54.414062 " fill-opacity="1" fill-rule="nonzero"/><g clip-path="url(#a1c999d71e)"><path fill="#3cacae" d="M 326.578125 175.398438 C 326.582031 174.292969 326.535156 173.191406 326.4375 172.09375 C 326.339844 170.992188 326.191406 169.902344 325.996094 168.816406 C 325.796875 167.730469 325.550781 166.65625 325.257812 165.589844 C 324.960938 164.527344 324.617188 163.480469 324.226562 162.449219 C 323.835938 161.414062 323.402344 160.402344 322.917969 159.410156 C 322.433594 158.417969 321.90625 157.449219 321.335938 156.507812 C 320.765625 155.5625 320.152344 154.644531 319.496094 153.757812 C 318.84375 152.871094 318.148438 152.011719 317.414062 151.1875 C 316.683594 150.363281 315.914062 149.574219 315.109375 148.820312 C 314.304688 148.0625 313.464844 147.347656 312.59375 146.667969 C 311.726562 145.988281 310.824219 145.351562 309.898438 144.757812 C 308.96875 144.160156 308.015625 143.605469 307.035156 143.097656 C 306.054688 142.589844 305.054688 142.125 304.035156 141.707031 C 303.015625 141.289062 301.976562 140.917969 300.921875 140.59375 C 299.867188 140.269531 298.796875 139.996094 297.71875 139.769531 C 296.636719 139.542969 295.550781 139.367188 294.453125 139.242188 C 293.355469 139.113281 292.257812 139.035156 291.152344 139.011719 C 290.050781 138.984375 288.949219 139.007812 287.847656 139.082031 C 286.746094 139.15625 285.652344 139.28125 284.5625 139.453125 C 283.472656 139.628906 282.390625 139.851562 281.320312 140.125 C 280.253906 140.394531 279.199219 140.714844 278.15625 141.085938 C 277.117188 141.453125 276.097656 141.871094 275.09375 142.332031 C 274.089844 142.792969 273.113281 143.300781 272.15625 143.851562 C 271.199219 144.402344 270.269531 144.996094 269.371094 145.632812 C 268.46875 146.265625 267.597656 146.941406 266.757812 147.65625 C 265.914062 148.375 265.109375 149.125 264.339844 149.914062 C 263.566406 150.703125 262.832031 151.523438 262.136719 152.382812 C 261.4375 153.238281 260.78125 154.121094 260.167969 155.039062 C 259.550781 155.953125 258.976562 156.894531 258.449219 157.863281 C 257.917969 158.832031 257.433594 159.820312 256.992188 160.835938 C 256.554688 161.847656 256.160156 162.875 255.816406 163.925781 C 255.46875 164.972656 255.171875 166.035156 254.921875 167.109375 C 254.675781 168.183594 254.472656 169.269531 254.324219 170.363281 C 254.175781 171.457031 254.074219 172.554688 254.023438 173.65625 C 253.976562 174.757812 253.976562 175.859375 254.027344 176.960938 C 254.078125 178.066406 254.175781 179.164062 254.328125 180.257812 C 254.480469 181.347656 254.679688 182.433594 254.929688 183.507812 C 255.179688 184.582031 255.476562 185.644531 255.824219 186.691406 C 256.171875 187.738281 256.5625 188.769531 257.003906 189.78125 C 257.445312 190.792969 257.929688 191.785156 258.460938 192.75 C 258.992188 193.71875 259.566406 194.660156 260.183594 195.574219 C 260.796875 196.492188 261.457031 197.375 262.152344 198.230469 C 262.851562 199.085938 263.585938 199.90625 264.359375 200.695312 C 265.128906 201.484375 265.9375 202.234375 266.777344 202.949219 C 267.617188 203.664062 268.488281 204.339844 269.390625 204.976562 C 270.292969 205.609375 271.222656 206.203125 272.179688 206.753906 C 273.136719 207.304688 274.117188 207.808594 275.121094 208.269531 C 276.121094 208.730469 277.144531 209.148438 278.183594 209.515625 L 278.183594 211.691406 C 278.175781 213.160156 278.105469 214.628906 277.964844 216.089844 C 277.824219 217.554688 277.617188 219.007812 277.34375 220.449219 C 277.070312 221.894531 276.734375 223.324219 276.328125 224.734375 C 275.925781 226.148438 275.460938 227.539062 274.929688 228.910156 C 274.402344 230.28125 273.8125 231.625 273.160156 232.941406 C 272.507812 234.257812 271.796875 235.542969 271.027344 236.796875 C 270.257812 238.046875 269.433594 239.261719 268.554688 240.4375 C 267.675781 241.617188 266.742188 242.75 265.757812 243.84375 C 264.777344 244.933594 263.746094 245.980469 262.667969 246.976562 C 261.589844 247.976562 260.46875 248.921875 259.304688 249.820312 C 258.140625 250.714844 256.9375 251.558594 255.695312 252.34375 C 254.453125 253.128906 253.179688 253.859375 251.871094 254.527344 C 250.5625 255.199219 249.230469 255.808594 247.867188 256.359375 C 246.503906 256.90625 245.117188 257.390625 243.710938 257.816406 C 242.304688 258.238281 240.878906 258.59375 239.4375 258.886719 C 238 259.179688 236.550781 259.410156 235.089844 259.570312 C 233.628906 259.730469 232.164062 259.824219 230.695312 259.851562 C 229.226562 259.878906 227.757812 259.839844 226.292969 259.734375 C 224.828125 259.628906 223.367188 259.453125 221.917969 259.214844 C 220.46875 258.976562 219.03125 258.671875 217.609375 258.300781 C 216.1875 257.933594 214.785156 257.5 213.402344 257 C 212.019531 256.503906 210.664062 255.945312 209.332031 255.324219 C 208 254.703125 206.699219 254.019531 205.429688 253.28125 C 204.160156 252.542969 202.925781 251.746094 201.730469 250.894531 C 200.535156 250.042969 199.378906 249.136719 198.261719 248.179688 C 197.148438 247.222656 196.078125 246.214844 195.054688 245.160156 C 194.03125 244.105469 193.058594 243.007812 192.136719 241.863281 C 191.214844 240.722656 190.34375 239.539062 189.527344 238.316406 C 188.714844 237.09375 187.957031 235.835938 187.253906 234.546875 C 186.554688 233.253906 185.914062 231.933594 185.332031 230.582031 C 184.753906 229.234375 184.234375 227.859375 183.78125 226.460938 C 183.324219 225.066406 182.933594 223.648438 182.605469 222.21875 C 184.265625 221.84375 185.902344 221.402344 187.523438 220.890625 C 189.144531 220.378906 190.738281 219.796875 192.3125 219.152344 C 193.882812 218.503906 195.425781 217.792969 196.9375 217.019531 C 198.445312 216.242188 199.921875 215.402344 201.363281 214.503906 C 202.804688 213.601562 204.207031 212.640625 205.566406 211.625 C 206.925781 210.605469 208.238281 209.53125 209.507812 208.402344 C 210.777344 207.269531 212 206.089844 213.167969 204.859375 C 214.339844 203.625 215.453125 202.347656 216.515625 201.019531 C 217.578125 199.695312 218.582031 198.324219 219.53125 196.914062 C 220.476562 195.503906 221.363281 194.054688 222.1875 192.570312 C 223.011719 191.085938 223.773438 189.566406 224.46875 188.015625 C 225.167969 186.46875 225.796875 184.890625 226.359375 183.289062 C 226.925781 181.683594 227.421875 180.0625 227.847656 178.417969 C 228.273438 176.773438 228.632812 175.113281 228.917969 173.4375 C 229.207031 171.761719 229.421875 170.078125 229.570312 168.386719 C 229.714844 166.695312 229.789062 164.996094 229.789062 163.296875 L 229.789062 139.101562 C 229.789062 138.308594 229.75 137.519531 229.675781 136.730469 C 229.597656 135.941406 229.480469 135.160156 229.324219 134.382812 C 229.171875 133.605469 228.980469 132.835938 228.75 132.078125 C 228.519531 131.320312 228.253906 130.574219 227.949219 129.84375 C 227.644531 129.109375 227.308594 128.394531 226.933594 127.695312 C 226.558594 126.996094 226.152344 126.316406 225.710938 125.660156 C 225.273438 125 224.800781 124.363281 224.296875 123.75 C 223.796875 123.140625 223.265625 122.550781 222.703125 121.992188 C 222.144531 121.433594 221.558594 120.902344 220.945312 120.398438 C 220.332031 119.894531 219.695312 119.421875 219.035156 118.984375 C 218.378906 118.542969 217.699219 118.136719 217 117.761719 C 216.300781 117.390625 215.585938 117.050781 214.855469 116.746094 C 214.121094 116.445312 213.375 116.175781 212.617188 115.945312 C 211.859375 115.71875 211.09375 115.523438 210.316406 115.371094 C 209.539062 115.214844 208.753906 115.097656 207.964844 115.023438 C 207.175781 114.945312 206.386719 114.90625 205.59375 114.90625 L 193.496094 114.90625 C 192.703125 114.90625 191.914062 114.984375 191.136719 115.136719 C 190.355469 115.292969 189.601562 115.523438 188.867188 115.828125 C 188.132812 116.128906 187.433594 116.503906 186.773438 116.945312 C 186.113281 117.386719 185.503906 117.886719 184.941406 118.449219 C 184.378906 119.011719 183.878906 119.621094 183.4375 120.28125 C 182.996094 120.941406 182.621094 121.640625 182.316406 122.375 C 182.015625 123.109375 181.785156 123.863281 181.628906 124.644531 C 181.476562 125.421875 181.398438 126.210938 181.398438 127.003906 C 181.398438 127.796875 181.476562 128.585938 181.628906 129.363281 C 181.785156 130.144531 182.015625 130.898438 182.316406 131.632812 C 182.621094 132.367188 182.996094 133.066406 183.4375 133.726562 C 183.878906 134.386719 184.378906 134.996094 184.941406 135.558594 C 185.503906 136.121094 186.113281 136.621094 186.773438 137.0625 C 187.433594 137.503906 188.132812 137.878906 188.867188 138.179688 C 189.601562 138.484375 190.355469 138.714844 191.136719 138.871094 C 191.914062 139.023438 192.703125 139.101562 193.496094 139.101562 L 205.59375 139.101562 L 205.59375 163.296875 C 205.59375 164.488281 205.535156 165.671875 205.417969 166.855469 C 205.304688 168.039062 205.128906 169.214844 204.898438 170.378906 C 204.664062 171.546875 204.375 172.695312 204.03125 173.835938 C 203.6875 174.972656 203.285156 176.089844 202.832031 177.1875 C 202.375 178.285156 201.867188 179.359375 201.308594 180.40625 C 200.746094 181.457031 200.136719 182.476562 199.476562 183.464844 C 198.816406 184.453125 198.109375 185.40625 197.355469 186.324219 C 196.601562 187.242188 195.804688 188.121094 194.964844 188.964844 C 194.121094 189.804688 193.242188 190.601562 192.324219 191.355469 C 191.40625 192.109375 190.453125 192.816406 189.464844 193.476562 C 188.476562 194.136719 187.457031 194.746094 186.410156 195.308594 C 185.359375 195.867188 184.285156 196.375 183.1875 196.832031 C 182.089844 197.285156 180.972656 197.6875 179.835938 198.03125 C 178.699219 198.375 177.546875 198.664062 176.378906 198.894531 C 175.214844 199.128906 174.039062 199.300781 172.855469 199.417969 C 171.671875 199.535156 170.488281 199.59375 169.300781 199.59375 C 168.109375 199.59375 166.925781 199.535156 165.742188 199.417969 C 164.558594 199.300781 163.382812 199.128906 162.21875 198.894531 C 161.050781 198.664062 159.902344 198.375 158.761719 198.03125 C 157.625 197.6875 156.507812 197.285156 155.410156 196.832031 C 154.3125 196.375 153.238281 195.867188 152.191406 195.308594 C 151.140625 194.746094 150.121094 194.136719 149.132812 193.476562 C 148.144531 192.816406 147.191406 192.109375 146.273438 191.355469 C 145.355469 190.601562 144.476562 189.804688 143.632812 188.964844 C 142.792969 188.121094 141.996094 187.242188 141.242188 186.324219 C 140.488281 185.40625 139.78125 184.453125 139.121094 183.464844 C 138.460938 182.476562 137.851562 181.457031 137.289062 180.40625 C 136.730469 179.359375 136.222656 178.285156 135.765625 177.1875 C 135.3125 176.089844 134.910156 174.972656 134.566406 173.835938 C 134.222656 172.695312 133.933594 171.546875 133.703125 170.378906 C 133.46875 169.214844 133.296875 168.039062 133.179688 166.855469 C 133.0625 165.671875 133.003906 164.488281 133.003906 163.296875 L 133.003906 139.101562 L 145.101562 139.101562 C 145.898438 139.101562 146.683594 139.023438 147.460938 138.871094 C 148.242188 138.714844 149 138.484375 149.730469 138.179688 C 150.464844 137.878906 151.164062 137.503906 151.824219 137.0625 C 152.484375 136.621094 153.09375 136.121094 153.65625 135.558594 C 154.21875 134.996094 154.71875 134.386719 155.160156 133.726562 C 155.601562 133.066406 155.976562 132.367188 156.28125 131.632812 C 156.582031 130.898438 156.8125 130.144531 156.96875 129.363281 C 157.125 128.585938 157.199219 127.796875 157.199219 127.003906 C 157.199219 126.210938 157.125 125.421875 156.96875 124.644531 C 156.8125 123.863281 156.582031 123.109375 156.28125 122.375 C 155.976562 121.640625 155.601562 120.941406 155.160156 120.28125 C 154.71875 119.621094 154.21875 119.011719 153.65625 118.449219 C 153.09375 117.886719 152.484375 117.386719 151.824219 116.945312 C 151.164062 116.503906 150.464844 116.128906 149.730469 115.828125 C 149 115.523438 148.242188 115.292969 147.460938 115.136719 C 146.683594 114.984375 145.898438 114.90625 145.101562 114.90625 L 133.003906 114.90625 C 132.210938 114.90625 131.421875 114.945312 130.632812 115.023438 C 129.84375 115.097656 129.0625 115.214844 128.285156 115.371094 C 127.507812 115.523438 126.738281 115.71875 125.980469 115.945312 C 125.222656 116.175781 124.476562 116.445312 123.746094 116.746094 C 123.011719 117.050781 122.296875 117.390625 121.597656 117.761719 C 120.898438 118.136719 120.21875 118.542969 119.5625 118.984375 C 118.902344 119.421875 118.265625 119.894531 117.652344 120.398438 C 117.042969 120.902344 116.453125 121.433594 115.894531 121.992188 C 115.332031 122.550781 114.800781 123.140625 114.300781 123.75 C 113.796875 124.363281 113.324219 125 112.886719 125.660156 C 112.445312 126.316406 112.039062 126.996094 111.664062 127.695312 C 111.289062 128.394531 110.953125 129.109375 110.648438 129.84375 C 110.347656 130.574219 110.078125 131.320312 109.847656 132.078125 C 109.617188 132.835938 109.425781 133.605469 109.273438 134.382812 C 109.117188 135.160156 109 135.941406 108.921875 136.730469 C 108.847656 137.519531 108.808594 138.308594 108.808594 139.101562 L 108.808594 163.296875 C 108.808594 165.046875 108.886719 166.789062 109.039062 168.527344 C 109.191406 170.265625 109.417969 171.996094 109.722656 173.71875 C 110.023438 175.4375 110.398438 177.140625 110.847656 178.828125 C 111.300781 180.515625 111.820312 182.179688 112.414062 183.820312 C 113.007812 185.464844 113.671875 187.078125 114.40625 188.664062 C 115.140625 190.246094 115.941406 191.796875 116.808594 193.3125 C 117.679688 194.828125 118.609375 196.300781 119.605469 197.738281 C 120.601562 199.171875 121.65625 200.558594 122.773438 201.902344 C 123.890625 203.246094 125.0625 204.539062 126.289062 205.78125 C 127.519531 207.023438 128.796875 208.207031 130.128906 209.339844 C 131.457031 210.46875 132.835938 211.539062 134.257812 212.550781 C 135.683594 213.5625 137.148438 214.511719 138.652344 215.398438 C 140.160156 216.28125 141.699219 217.097656 143.277344 217.851562 C 144.851562 218.601562 146.457031 219.285156 148.09375 219.894531 C 149.730469 220.507812 151.386719 221.046875 153.070312 221.515625 C 154.753906 221.984375 156.453125 222.378906 158.167969 222.703125 C 158.53125 224.917969 159 227.113281 159.566406 229.285156 C 160.136719 231.457031 160.804688 233.597656 161.570312 235.707031 C 162.339844 237.820312 163.203125 239.890625 164.160156 241.921875 C 165.121094 243.949219 166.171875 245.933594 167.3125 247.867188 C 168.457031 249.796875 169.6875 251.675781 171.003906 253.492188 C 172.324219 255.3125 173.722656 257.066406 175.199219 258.753906 C 176.679688 260.441406 178.234375 262.058594 179.867188 263.605469 C 181.496094 265.148438 183.195312 266.613281 184.960938 268.003906 C 186.726562 269.390625 188.554688 270.691406 190.441406 271.910156 C 192.328125 273.125 194.265625 274.253906 196.257812 275.292969 C 198.25 276.328125 200.285156 277.273438 202.363281 278.121094 C 204.441406 278.96875 206.558594 279.71875 208.707031 280.371094 C 210.855469 281.023438 213.027344 281.574219 215.230469 282.027344 C 217.429688 282.476562 219.644531 282.824219 221.878906 283.070312 C 224.109375 283.316406 226.347656 283.457031 228.59375 283.492188 C 230.839844 283.53125 233.082031 283.464844 235.320312 283.292969 C 237.558594 283.121094 239.785156 282.847656 242 282.46875 C 244.214844 282.09375 246.40625 281.613281 248.574219 281.03125 C 250.742188 280.449219 252.882812 279.769531 254.988281 278.992188 C 257.09375 278.210938 259.160156 277.335938 261.183594 276.367188 C 263.207031 275.394531 265.183594 274.332031 267.109375 273.175781 C 269.035156 272.023438 270.90625 270.78125 272.714844 269.453125 C 274.527344 268.125 276.273438 266.71875 277.953125 265.226562 C 279.632812 263.738281 281.242188 262.171875 282.777344 260.535156 C 284.3125 258.894531 285.765625 257.1875 287.144531 255.414062 C 288.519531 253.640625 289.8125 251.804688 291.019531 249.914062 C 292.226562 248.019531 293.339844 246.074219 294.367188 244.074219 C 295.394531 242.078125 296.324219 240.035156 297.160156 237.953125 C 297.996094 235.867188 298.734375 233.75 299.375 231.597656 C 300.015625 229.445312 300.554688 227.269531 300.992188 225.066406 C 301.429688 222.863281 301.765625 220.644531 301.996094 218.410156 C 302.230469 216.175781 302.355469 213.9375 302.378906 211.691406 L 302.378906 209.515625 C 304.136719 208.894531 305.832031 208.144531 307.472656 207.261719 C 309.109375 206.378906 310.671875 205.378906 312.15625 204.257812 C 313.640625 203.136719 315.03125 201.90625 316.328125 200.570312 C 317.625 199.238281 318.8125 197.808594 319.886719 196.292969 C 320.964844 194.773438 321.917969 193.183594 322.75 191.519531 C 323.582031 189.851562 324.28125 188.132812 324.847656 186.363281 C 325.417969 184.589844 325.84375 182.785156 326.136719 180.945312 C 326.425781 179.109375 326.574219 177.257812 326.578125 175.398438 Z M 290.28125 187.496094 C 289.488281 187.496094 288.703125 187.417969 287.921875 187.261719 C 287.144531 187.109375 286.386719 186.878906 285.652344 186.574219 C 284.917969 186.269531 284.222656 185.898438 283.5625 185.457031 C 282.902344 185.015625 282.289062 184.511719 281.726562 183.953125 C 281.164062 183.390625 280.664062 182.777344 280.222656 182.117188 C 279.78125 181.457031 279.410156 180.761719 279.105469 180.027344 C 278.800781 179.292969 278.570312 178.535156 278.417969 177.757812 C 278.261719 176.976562 278.183594 176.191406 278.183594 175.398438 C 278.183594 174.601562 278.261719 173.816406 278.417969 173.035156 C 278.570312 172.257812 278.800781 171.5 279.105469 170.765625 C 279.410156 170.035156 279.78125 169.335938 280.222656 168.675781 C 280.664062 168.015625 281.164062 167.402344 281.726562 166.84375 C 282.289062 166.28125 282.902344 165.777344 283.5625 165.335938 C 284.222656 164.894531 284.917969 164.523438 285.652344 164.21875 C 286.386719 163.914062 287.144531 163.6875 287.921875 163.53125 C 288.703125 163.375 289.488281 163.296875 290.28125 163.296875 C 291.078125 163.296875 291.863281 163.375 292.644531 163.53125 C 293.421875 163.6875 294.179688 163.914062 294.914062 164.21875 C 295.644531 164.523438 296.34375 164.894531 297.003906 165.335938 C 297.664062 165.777344 298.277344 166.28125 298.835938 166.84375 C 299.398438 167.402344 299.902344 168.015625 300.34375 168.675781 C 300.785156 169.335938 301.15625 170.035156 301.460938 170.765625 C 301.765625 171.5 301.992188 172.257812 302.148438 173.035156 C 302.304688 173.816406 302.378906 174.601562 302.378906 175.398438 C 302.378906 176.191406 302.304688 176.976562 302.148438 177.757812 C 301.992188 178.535156 301.765625 179.292969 301.460938 180.027344 C 301.15625 180.761719 300.785156 181.457031 300.34375 182.117188 C 299.902344 182.777344 299.398438 183.390625 298.835938 183.953125 C 298.277344 184.511719 297.664062 185.015625 297.003906 185.457031 C 296.34375 185.898438 295.644531 186.269531 294.914062 186.574219 C 294.179688 186.878906 293.421875 187.109375 292.644531 187.261719 C 291.863281 187.417969 291.078125 187.496094 290.28125 187.496094 Z M 290.28125 187.496094 " fill-opacity="1" fill-rule="nonzero"/></g></svg>