<svg xmlns="http://www.w3.org/2000/svg" xmlns:xlink="http://www.w3.org/1999/xlink" width="500" zoomAndPan="magnify" viewBox="0 0 375 374.999991" height="500" preserveAspectRatio="xMidYMid meet" version="1.0"><defs><clipPath id="e4f670d69d"><path d="M 8.804688 53.476562 L 366.554688 53.476562 L 366.554688 321.226562 L 8.804688 321.226562 Z M 8.804688 53.476562 " clip-rule="nonzero"/></clipPath></defs><g clip-path="url(#e4f670d69d)"><path fill="#3cacae" d="M 320.339844 154.5625 C 320.839844 150.679688 321.515625 146.839844 321.515625 142.824219 C 321.515625 93.484375 281.535156 53.480469 232.171875 53.480469 C 202.984375 53.480469 177.308594 67.679688 161.015625 89.339844 C 155.148438 87.921875 149.105469 86.984375 142.824219 86.984375 C 99.632812 86.984375 64.644531 121.972656 64.644531 165.164062 C 64.644531 166.382812 64.949219 167.476562 64.992188 168.695312 C 32.601562 178.230469 8.804688 207.851562 8.804688 243.339844 C 8.804688 286.53125 43.792969 321.519531 86.980469 321.519531 L 276.84375 321.519531 C 326.207031 321.519531 366.191406 281.535156 366.191406 232.171875 C 366.191406 198.710938 347.582031 169.875 320.339844 154.5625 Z M 260.089844 254.507812 L 170.746094 254.507812 L 170.746094 276.847656 L 114.902344 243.339844 L 170.746094 209.835938 L 170.746094 232.171875 L 260.089844 232.171875 Z M 204.25 209.835938 L 204.25 187.5 L 114.902344 187.5 L 114.902344 165.164062 L 204.25 165.164062 L 204.25 142.824219 L 260.089844 176.332031 Z M 204.25 209.835938 " fill-opacity="1" fill-rule="nonzero"/></g></svg>