<svg xmlns="http://www.w3.org/2000/svg" xmlns:xlink="http://www.w3.org/1999/xlink" width="500" zoomAndPan="magnify" viewBox="0 0 375 374.999991" height="500" preserveAspectRatio="xMidYMid meet" version="1.0"><defs><clipPath id="03125bd882"><path d="M 13.371094 31.097656 L 313 31.097656 L 313 77 L 13.371094 77 Z M 13.371094 31.097656 " clip-rule="nonzero"/></clipPath><clipPath id="eb9727427e"><path d="M 13.371094 81.792969 L 312.355469 81.792969 L 312.355469 330.082031 L 13.371094 330.082031 Z M 13.371094 81.792969 " clip-rule="nonzero"/></clipPath><clipPath id="ff16b7841d"><path d="M 245.007812 248.59375 L 339.230469 248.59375 L 339.230469 330.082031 L 245.007812 330.082031 Z M 245.007812 248.59375 " clip-rule="nonzero"/></clipPath><clipPath id="e30f5acca6"><path d="M 306.601562 202.476562 L 361.371094 202.476562 L 361.371094 243.363281 L 306.601562 243.363281 Z M 306.601562 202.476562 " clip-rule="nonzero"/></clipPath></defs><path fill="#3cacae" d="M 55.925781 63.339844 C 61.335938 63.339844 65.734375 58.9375 65.734375 53.527344 C 65.734375 48.121094 61.335938 43.71875 55.925781 43.71875 C 50.519531 43.71875 46.117188 48.121094 46.117188 53.527344 C 46.117188 58.9375 50.519531 63.339844 55.925781 63.339844 " fill-opacity="1" fill-rule="nonzero"/><g clip-path="url(#03125bd882)"><path fill="#3cacae" d="M 55.925781 38.371094 C 64.285156 38.371094 71.085938 45.167969 71.085938 53.53125 C 71.085938 61.886719 64.285156 68.6875 55.925781 68.6875 C 47.566406 68.6875 40.765625 61.886719 40.765625 53.53125 C 40.765625 45.167969 47.566406 38.371094 55.925781 38.371094 Z M 312.273438 71.828125 L 312.273438 60.828125 C 312.273438 44.453125 299 31.179688 282.625 31.179688 L 43.023438 31.179688 C 26.648438 31.179688 13.371094 44.453125 13.371094 60.828125 L 13.371094 71.828125 C 13.371094 74.429688 15.480469 76.539062 18.082031 76.539062 L 307.566406 76.539062 C 310.164062 76.539062 312.273438 74.429688 312.273438 71.828125 " fill-opacity="1" fill-rule="nonzero"/></g><g clip-path="url(#eb9727427e)"><path fill="#3cacae" d="M 200.285156 244.484375 C 199.601562 244.484375 198.914062 244.222656 198.394531 243.699219 C 197.347656 242.65625 197.347656 240.964844 198.394531 239.917969 L 242.539062 195.773438 L 198.394531 151.632812 C 197.347656 150.589844 197.347656 148.894531 198.394531 147.847656 C 199.441406 146.804688 201.132812 146.804688 202.175781 147.847656 L 248.210938 193.882812 C 248.710938 194.386719 248.996094 195.066406 248.996094 195.773438 C 248.996094 196.484375 248.710938 197.164062 248.210938 197.667969 L 202.175781 243.699219 C 201.652344 244.222656 200.972656 244.484375 200.285156 244.484375 Z M 187.625 124.019531 L 143.136719 269.101562 C 142.785156 270.25 141.726562 270.992188 140.582031 270.992188 C 140.320312 270.992188 140.058594 270.953125 139.796875 270.875 C 138.382812 270.441406 137.589844 268.945312 138.023438 267.53125 L 182.507812 122.449219 C 182.941406 121.039062 184.4375 120.242188 185.851562 120.675781 C 187.265625 121.109375 188.058594 122.605469 187.625 124.019531 Z M 127.253906 239.917969 C 128.296875 240.964844 128.296875 242.65625 127.253906 243.699219 C 126.730469 244.222656 126.046875 244.484375 125.359375 244.484375 C 124.675781 244.484375 123.992188 244.222656 123.46875 243.699219 L 77.4375 197.667969 C 76.390625 196.621094 76.390625 194.929688 77.4375 193.882812 L 123.46875 147.847656 C 124.515625 146.804688 126.207031 146.804688 127.253906 147.847656 C 128.296875 148.894531 128.296875 150.589844 127.253906 151.632812 L 83.109375 195.773438 Z M 239.699219 317.917969 L 239.699219 260.847656 C 239.699219 251.171875 247.539062 243.332031 257.214844 243.332031 L 301.292969 243.332031 L 301.292969 229.964844 C 301.292969 221.597656 304.457031 213.96875 309.636719 208.167969 C 311.28125 206.324219 312.273438 203.984375 312.273438 201.507812 L 312.273438 86.597656 C 312.273438 83.996094 310.164062 81.886719 307.566406 81.886719 L 18.082031 81.886719 C 15.480469 81.886719 13.371094 83.996094 13.371094 86.597656 L 13.371094 300.429688 C 13.371094 316.808594 26.648438 330.082031 43.023438 330.082031 L 239.644531 330.082031 C 241.582031 330.082031 242.789062 328.007812 241.855469 326.3125 C 240.480469 323.816406 239.699219 320.957031 239.699219 317.917969 " fill-opacity="1" fill-rule="nonzero"/></g><path fill="#3cacae" d="M 292.136719 272.5 C 287.089844 272.5 282.984375 276.605469 282.984375 281.652344 C 282.984375 285.175781 285.050781 288.421875 288.25 289.929688 C 289.191406 290.371094 289.789062 291.3125 289.789062 292.351562 L 289.789062 303.914062 C 289.789062 305.210938 290.839844 306.265625 292.136719 306.265625 C 293.429688 306.265625 294.484375 305.210938 294.484375 303.914062 L 294.484375 292.351562 C 294.484375 291.3125 295.085938 290.371094 296.023438 289.929688 C 299.222656 288.421875 301.292969 285.175781 301.292969 281.652344 C 301.292969 276.605469 297.183594 272.5 292.136719 272.5 " fill-opacity="1" fill-rule="nonzero"/><g clip-path="url(#ff16b7841d)"><path fill="#3cacae" d="M 299.835938 293.929688 L 299.835938 303.914062 C 299.835938 308.160156 296.382812 311.613281 292.136719 311.613281 C 287.890625 311.613281 284.4375 308.160156 284.4375 303.914062 L 284.4375 293.929688 C 280.253906 291.300781 277.632812 286.652344 277.632812 281.652344 C 277.632812 273.65625 284.136719 267.148438 292.136719 267.148438 C 300.132812 267.148438 306.640625 273.65625 306.640625 281.652344 C 306.640625 286.652344 304.019531 291.300781 299.835938 293.929688 Z M 257.214844 248.683594 C 250.503906 248.683594 245.046875 254.140625 245.046875 260.847656 L 245.046875 317.917969 C 245.046875 324.625 250.503906 330.082031 257.214844 330.082031 L 327.058594 330.082031 C 333.765625 330.082031 339.226562 324.625 339.226562 317.917969 L 339.226562 260.847656 C 339.226562 254.140625 333.765625 248.683594 327.058594 248.683594 L 257.214844 248.683594 " fill-opacity="1" fill-rule="nonzero"/></g><g clip-path="url(#e30f5acca6)"><path fill="#3cacae" d="M 332.746094 202.511719 C 317.980469 203.238281 306.640625 215.976562 306.640625 230.761719 L 306.640625 243.332031 L 313.835938 243.332031 C 315.382812 243.332031 316.636719 242.078125 316.636719 240.535156 L 316.636719 230.558594 C 316.636719 221.152344 323.808594 212.984375 333.203125 212.496094 C 343.183594 211.976562 351.488281 219.875 351.625 229.714844 C 351.660156 232.113281 353.175781 234.339844 355.519531 234.84375 C 358.753906 235.542969 361.621094 233.082031 361.621094 229.964844 C 361.621094 214.347656 348.53125 201.730469 332.746094 202.511719 " fill-opacity="1" fill-rule="nonzero"/></g></svg>