<svg xmlns="http://www.w3.org/2000/svg" xmlns:xlink="http://www.w3.org/1999/xlink" width="500" zoomAndPan="magnify" viewBox="0 0 375 374.999991" height="500" preserveAspectRatio="xMidYMid meet" version="1.0"><defs><clipPath id="6146f12f99"><path d="M 52 231 L 323.957031 231 L 323.957031 353.25 L 52 353.25 Z M 52 231 " clip-rule="nonzero"/></clipPath></defs><path fill="#3cacae" d="M 286.464844 115.027344 C 285.703125 112.289062 283.84375 110.03125 281.222656 108.652344 C 281.792969 102.464844 280.949219 94.882812 279.5 88.644531 C 278.277344 83.511719 276.347656 77.769531 273.398438 71.792969 C 270.28125 65.878906 266.4375 59.589844 261.042969 53.800781 C 255.925781 47.804688 249.324219 42.339844 241.882812 37.53125 C 176.929688 -3.671875 87.25 45.0625 94.210938 108.671875 C 91.609375 110.046875 89.765625 112.289062 89.007812 115.011719 C 73.632812 115.289062 61.277344 126.714844 61.277344 140.828125 C 61.277344 154.941406 73.632812 166.382812 89.007812 166.660156 C 90.230469 171.105469 94.433594 174.484375 99.691406 174.484375 C 105.914062 174.484375 110.925781 169.882812 110.925781 164.195312 L 110.925781 117.492188 C 110.925781 114.253906 109.203125 111.480469 106.671875 109.601562 C 109.480469 93.523438 117.835938 76.53125 129.554688 65.984375 C 146.753906 49.214844 176.601562 39.53125 209.414062 46.839844 C 222.046875 50.59375 234.472656 56.917969 244.828125 67.050781 C 256.355469 77.410156 265.714844 92.9375 268.765625 109.601562 C 262.128906 114.53125 264.507812 118.785156 264.507812 164.195312 C 264.507812 167.746094 266.609375 170.726562 269.589844 172.570312 L 269.589844 176.535156 C 269.589844 179.03125 268.886719 181.496094 267.523438 183.617188 C 252.839844 206.503906 251.875 208.828125 229.695312 215.929688 C 222.71875 218.152344 214.84375 219.117188 206.878906 221.0625 C 199.539062 213.808594 186.597656 218.582031 186.597656 228.285156 C 186.597656 240.539062 205.726562 243.347656 209.429688 231.09375 C 214.808594 229.785156 220.339844 229.007812 225.542969 227.421875 C 254.152344 218.71875 263.507812 213.550781 278.65625 184.652344 C 280.085938 181.910156 280.84375 178.878906 280.84375 175.792969 L 280.84375 173.242188 C 283.671875 171.898438 285.671875 169.539062 286.464844 166.640625 C 301.816406 166.367188 314.15625 154.941406 314.15625 140.828125 C 314.15625 126.730469 301.816406 115.320312 286.464844 115.027344 " fill-opacity="1" fill-rule="nonzero"/><g clip-path="url(#6146f12f99)"><path fill="#3cacae" d="M 187.753906 281.984375 C 196.9375 269.09375 204.933594 258.011719 212.773438 246.828125 C 221.960938 233.714844 231.214844 229.472656 245.722656 234.367188 C 264.164062 240.589844 282.414062 247.550781 300.265625 255.324219 C 315.585938 261.992188 324.1875 273.917969 323.238281 291.597656 C 322.753906 300.300781 323.238281 309.039062 323.117188 317.757812 C 322.808594 341.78125 311.863281 352.964844 288.066406 353.085938 C 257.339844 353.277344 226.613281 353.15625 195.886719 353.15625 C 160.179688 353.15625 124.453125 353.242188 88.765625 353.105469 C 63.226562 352.984375 52.457031 342.074219 52.316406 316.671875 C 52.265625 308.367188 52.730469 300.042969 52.214844 291.769531 C 51.078125 273.367188 60.554688 261.542969 76.183594 254.789062 C 94.054688 247.070312 112.390625 240.363281 130.867188 234.246094 C 146.617188 229.007812 151.492188 231.351562 161.246094 245.019531 C 169.640625 256.789062 178.101562 268.523438 187.753906 281.984375 " fill-opacity="1" fill-rule="nonzero"/></g><path fill="#3cacae" d="M 252.839844 128.644531 C 251.152344 150.324219 244.3125 178.015625 221.582031 199.351562 C 202.3125 217.429688 172.914062 217.875 153.957031 199.367188 C 127.695312 173.707031 119.40625 141.085938 123.472656 105.859375 C 125.59375 87.4375 136.828125 72.929688 155.699219 66.757812 C 183.753906 57.574219 210.929688 56.660156 235.625 76.289062 C 250.050781 87.730469 253.339844 103.449219 252.839844 128.644531 " fill-opacity="1" fill-rule="nonzero"/></svg>