<svg xmlns="http://www.w3.org/2000/svg" xmlns:xlink="http://www.w3.org/1999/xlink" width="500" zoomAndPan="magnify" viewBox="0 0 375 374.999991" height="500" preserveAspectRatio="xMidYMid meet" version="1.0"><defs><clipPath id="3590ed3ce9"><path d="M 55.859375 44 L 232 44 L 232 353 L 55.859375 353 Z M 55.859375 44 " clip-rule="nonzero"/></clipPath><clipPath id="e23a97109d"><path d="M 71 18.1875 L 298 18.1875 L 298 340 L 71 340 Z M 71 18.1875 " clip-rule="nonzero"/></clipPath><clipPath id="f680be89c0"><path d="M 219 256 L 319.109375 256 L 319.109375 356.4375 L 219 356.4375 Z M 219 256 " clip-rule="nonzero"/></clipPath></defs><rect x="-37.5" width="450" fill="#ffffff" y="-37.499999" height="449.999989" fill-opacity="1"/><rect x="-37.5" width="450" fill="#ffffff" y="-37.499999" height="449.999989" fill-opacity="1"/><g clip-path="url(#3590ed3ce9)"><path fill="#3cacae" d="M 227.132812 352.375 L 90.664062 352.375 C 71.496094 352.375 55.898438 336.640625 55.898438 317.296875 L 55.898438 65.71875 C 55.898438 58.515625 57.945312 51.761719 61.820312 46.171875 C 63.109375 44.308594 65.664062 43.847656 67.523438 45.140625 C 69.382812 46.433594 69.847656 48.984375 68.558594 50.84375 C 65.636719 55.054688 64.09375 60.199219 64.09375 65.71875 L 64.09375 317.300781 C 64.09375 332.117188 76.015625 344.175781 90.664062 344.175781 L 227.132812 344.175781 C 229.398438 344.175781 231.230469 346.011719 231.230469 348.273438 C 231.230469 350.539062 229.398438 352.375 227.132812 352.375 Z M 227.132812 352.375 " fill-opacity="1" fill-rule="nonzero"/></g><g clip-path="url(#e23a97109d)"><path fill="#3cacae" d="M 218.046875 339.917969 L 105.917969 339.917969 C 86.746094 339.917969 71.152344 324.183594 71.152344 304.84375 L 71.152344 53.261719 C 71.152344 33.921875 86.746094 18.1875 105.917969 18.1875 L 262.347656 18.1875 C 281.609375 18.1875 297.277344 33.921875 297.277344 53.261719 L 297.277344 252.070312 C 297.277344 254.332031 295.441406 256.167969 293.179688 256.167969 C 290.914062 256.167969 289.082031 254.332031 289.082031 252.070312 L 289.082031 53.261719 C 289.082031 38.445312 277.089844 26.386719 262.347656 26.386719 L 105.917969 26.386719 C 91.265625 26.386719 79.34375 38.445312 79.34375 53.261719 L 79.34375 304.84375 C 79.34375 319.660156 91.265625 331.71875 105.917969 331.71875 L 218.046875 331.71875 C 220.3125 331.71875 222.144531 333.554688 222.144531 335.816406 C 222.144531 338.082031 220.3125 339.917969 218.046875 339.917969 Z M 218.046875 339.917969 " fill-opacity="1" fill-rule="nonzero"/></g><path fill="#3cacae" d="M 184.132812 166.679688 C 151.898438 166.679688 125.675781 140.207031 125.675781 107.671875 C 125.675781 75.050781 151.898438 48.507812 184.132812 48.507812 C 216.457031 48.507812 242.75 75.050781 242.75 107.671875 C 242.75 140.207031 216.457031 166.679688 184.132812 166.679688 Z M 184.132812 56.707031 C 156.417969 56.707031 133.871094 79.574219 133.871094 107.671875 C 133.871094 135.6875 156.417969 158.476562 184.132812 158.476562 C 211.9375 158.476562 234.558594 135.6875 234.558594 107.671875 C 234.558594 79.574219 211.9375 56.707031 184.132812 56.707031 Z M 184.132812 56.707031 " fill-opacity="1" fill-rule="nonzero"/><path fill="#3cacae" d="M 184.132812 166.679688 C 163.382812 166.679688 144.59375 155.941406 133.878906 137.960938 C 133.101562 136.65625 133.109375 135.027344 133.902344 133.726562 C 140.480469 122.957031 149.878906 114.691406 161.082031 109.820312 C 162.765625 109.070312 164.742188 109.5625 165.902344 111 C 170.355469 116.511719 177.171875 119.800781 184.132812 119.800781 C 191.257812 119.800781 197.804688 116.660156 202.570312 110.953125 C 203.734375 109.554688 205.691406 109.082031 207.347656 109.820312 C 218.652344 114.734375 228 123.019531 234.390625 133.773438 C 235.148438 135.054688 235.15625 136.644531 234.402344 137.933594 C 223.859375 155.933594 205.0625 166.679688 184.132812 166.679688 Z M 142.25 135.886719 C 151.652344 150.082031 167.128906 158.476562 184.132812 158.476562 C 201.296875 158.476562 216.789062 150.078125 226.042969 135.875 C 221.140625 128.433594 214.523438 122.515625 206.695312 118.566406 C 200.613281 124.59375 192.550781 128.003906 184.132812 128.003906 C 175.792969 128.003906 167.628906 124.523438 161.703125 118.574219 C 153.9375 122.511719 147.285156 128.429688 142.25 135.886719 Z M 142.25 135.886719 " fill-opacity="1" fill-rule="nonzero"/><path fill="#3cacae" d="M 184.132812 128.003906 C 166.660156 128.003906 152.449219 113.589844 152.449219 95.875 C 152.449219 78.253906 166.660156 63.917969 184.132812 63.917969 C 201.691406 63.917969 215.980469 78.253906 215.980469 95.875 C 215.976562 113.589844 201.691406 128.003906 184.132812 128.003906 Z M 184.132812 72.117188 C 171.179688 72.117188 160.644531 82.773438 160.644531 95.871094 C 160.644531 109.066406 171.179688 119.800781 184.132812 119.800781 C 197.394531 119.800781 207.785156 109.292969 207.785156 95.871094 C 207.785156 82.773438 197.171875 72.117188 184.132812 72.117188 Z M 184.132812 72.117188 " fill-opacity="1" fill-rule="nonzero"/><g clip-path="url(#f680be89c0)"><path fill="#3cacae" d="M 269.164062 356.800781 C 241.671875 356.800781 219.304688 334.226562 219.304688 306.480469 C 219.304688 278.738281 241.671875 256.164062 269.164062 256.164062 C 296.652344 256.164062 319.019531 278.738281 319.019531 306.480469 C 319.019531 334.226562 296.652344 356.800781 269.164062 356.800781 Z M 269.164062 264.363281 C 246.191406 264.363281 227.5 283.253906 227.5 306.480469 C 227.5 329.710938 246.191406 348.601562 269.164062 348.601562 C 292.132812 348.601562 310.824219 329.710938 310.824219 306.480469 C 310.824219 283.253906 292.132812 264.363281 269.164062 264.363281 Z M 269.164062 264.363281 " fill-opacity="1" fill-rule="nonzero"/></g><path fill="#3cacae" d="M 278.246094 340.085938 L 260.074219 340.085938 C 257.8125 340.085938 255.976562 338.246094 255.976562 335.984375 L 255.976562 319.761719 L 240.117188 319.761719 C 237.851562 319.761719 236.019531 317.925781 236.019531 315.660156 L 236.019531 297.304688 C 236.019531 295.039062 237.851562 293.203125 240.117188 293.203125 L 255.976562 293.203125 L 255.976562 277.140625 C 255.976562 274.875 257.8125 273.039062 260.074219 273.039062 L 278.246094 273.039062 C 280.511719 273.039062 282.34375 274.875 282.34375 277.140625 L 282.34375 293.203125 L 298.207031 293.203125 C 300.46875 293.203125 302.304688 295.039062 302.304688 297.304688 L 302.304688 315.660156 C 302.304688 317.925781 300.46875 319.761719 298.207031 319.761719 L 282.347656 319.761719 L 282.347656 335.984375 C 282.347656 338.246094 280.511719 340.085938 278.246094 340.085938 Z M 264.171875 331.882812 L 274.152344 331.882812 L 274.152344 315.660156 C 274.152344 313.398438 275.984375 311.5625 278.246094 311.5625 L 294.109375 311.5625 L 294.109375 301.402344 L 278.246094 301.402344 C 275.984375 301.402344 274.152344 299.566406 274.152344 297.304688 L 274.152344 281.242188 L 264.171875 281.242188 L 264.171875 297.304688 C 264.171875 299.566406 262.339844 301.402344 260.074219 301.402344 L 244.214844 301.402344 L 244.214844 311.5625 L 260.074219 311.5625 C 262.339844 311.5625 264.171875 313.398438 264.171875 315.660156 Z M 264.171875 331.882812 " fill-opacity="1" fill-rule="nonzero"/><path fill="#3cacae" d="M 210.582031 277.800781 L 121.65625 277.800781 C 119.394531 277.800781 117.5625 275.964844 117.5625 273.703125 C 117.5625 271.4375 119.394531 269.601562 121.65625 269.601562 L 210.582031 269.601562 C 212.847656 269.601562 214.679688 271.4375 214.679688 273.703125 C 214.679688 275.964844 212.847656 277.800781 210.582031 277.800781 Z M 246.769531 255.839844 L 121.65625 255.839844 C 119.394531 255.839844 117.5625 254.003906 117.5625 251.742188 C 117.5625 249.476562 119.394531 247.640625 121.65625 247.640625 L 246.769531 247.640625 C 249.03125 247.640625 250.867188 249.476562 250.867188 251.742188 C 250.867188 254.003906 249.03125 255.839844 246.769531 255.839844 Z M 246.769531 233.714844 L 121.65625 233.714844 C 119.394531 233.714844 117.5625 231.878906 117.5625 229.617188 C 117.5625 227.351562 119.394531 225.515625 121.65625 225.515625 L 246.769531 225.515625 C 249.03125 225.515625 250.867188 227.351562 250.867188 229.617188 C 250.867188 231.878906 249.03125 233.714844 246.769531 233.714844 Z M 246.769531 211.589844 L 121.65625 211.589844 C 119.394531 211.589844 117.5625 209.753906 117.5625 207.492188 C 117.5625 205.226562 119.394531 203.390625 121.65625 203.390625 L 246.769531 203.390625 C 249.03125 203.390625 250.867188 205.226562 250.867188 207.492188 C 250.867188 209.753906 249.03125 211.589844 246.769531 211.589844 Z M 246.769531 189.464844 L 121.65625 189.464844 C 119.394531 189.464844 117.5625 187.628906 117.5625 185.363281 C 117.5625 183.101562 119.394531 181.265625 121.65625 181.265625 L 246.769531 181.265625 C 249.03125 181.265625 250.867188 183.101562 250.867188 185.363281 C 250.867188 187.628906 249.03125 189.464844 246.769531 189.464844 Z M 246.769531 189.464844 " fill-opacity="1" fill-rule="nonzero"/></svg>