<svg xmlns="http://www.w3.org/2000/svg" xmlns:xlink="http://www.w3.org/1999/xlink" width="500" zoomAndPan="magnify" viewBox="0 0 375 374.999991" height="500" preserveAspectRatio="xMidYMid meet" version="1.0"><defs><clipPath id="1425977721"><path d="M 22 22 L 352.75 22 L 352.75 352.75 L 22 352.75 Z M 22 22 " clip-rule="nonzero"/></clipPath></defs><rect x="-37.5" width="450" fill="#ffffff" y="-37.499999" height="449.999989" fill-opacity="1"/><rect x="-37.5" width="450" fill="#ffffff" y="-37.499999" height="449.999989" fill-opacity="1"/><g clip-path="url(#1425977721)"><path fill="#3cacae" d="M 197.839844 352.996094 L 177.152344 352.996094 C 175.460938 352.992188 173.769531 352.910156 172.085938 352.742188 C 170.402344 352.574219 168.730469 352.324219 167.070312 351.992188 C 165.40625 351.660156 163.769531 351.246094 162.148438 350.753906 C 160.527344 350.261719 158.9375 349.691406 157.371094 349.042969 C 155.808594 348.394531 154.277344 347.667969 152.785156 346.871094 C 151.292969 346.070312 149.84375 345.203125 148.433594 344.261719 C 147.027344 343.320312 145.667969 342.3125 144.359375 341.238281 C 143.050781 340.164062 141.800781 339.027344 140.601562 337.828125 C 139.40625 336.632812 138.269531 335.378906 137.195312 334.070312 C 136.121094 332.761719 135.113281 331.402344 134.171875 329.996094 C 133.230469 328.589844 132.359375 327.136719 131.5625 325.644531 C 130.761719 324.152344 130.039062 322.625 129.390625 321.058594 C 128.738281 319.496094 128.167969 317.902344 127.675781 316.285156 C 127.183594 314.664062 126.769531 313.023438 126.441406 311.363281 C 126.109375 309.703125 125.859375 308.03125 125.691406 306.34375 C 125.523438 304.660156 125.4375 302.96875 125.4375 301.277344 L 125.4375 249.558594 L 73.71875 249.558594 C 72.023438 249.558594 70.335938 249.472656 68.648438 249.304688 C 66.964844 249.136719 65.292969 248.886719 63.632812 248.554688 C 61.972656 248.222656 60.332031 247.8125 58.710938 247.316406 C 57.089844 246.824219 55.5 246.253906 53.933594 245.605469 C 52.371094 244.957031 50.84375 244.234375 49.351562 243.433594 C 47.855469 242.636719 46.40625 241.765625 45 240.824219 C 43.589844 239.882812 42.234375 238.875 40.925781 237.800781 C 39.617188 236.726562 38.363281 235.589844 37.164062 234.394531 C 35.96875 233.195312 34.832031 231.941406 33.757812 230.632812 C 32.683594 229.324219 31.675781 227.96875 30.734375 226.558594 C 29.792969 225.152344 28.921875 223.703125 28.125 222.207031 C 27.324219 220.714844 26.601562 219.1875 25.953125 217.625 C 25.304688 216.058594 24.734375 214.46875 24.238281 212.847656 C 23.746094 211.226562 23.335938 209.585938 23.003906 207.925781 C 22.671875 206.265625 22.421875 204.59375 22.253906 202.910156 C 22.085938 201.222656 22 199.535156 22 197.839844 L 22 177.152344 C 22 175.460938 22.085938 173.769531 22.253906 172.085938 C 22.421875 170.402344 22.671875 168.730469 23.003906 167.070312 C 23.335938 165.40625 23.746094 163.769531 24.238281 162.148438 C 24.734375 160.527344 25.304688 158.9375 25.953125 157.371094 C 26.601562 155.808594 27.324219 154.277344 28.125 152.785156 C 28.921875 151.292969 29.792969 149.84375 30.734375 148.433594 C 31.675781 147.027344 32.683594 145.667969 33.757812 144.359375 C 34.832031 143.050781 35.96875 141.800781 37.164062 140.601562 C 38.363281 139.40625 39.617188 138.269531 40.925781 137.195312 C 42.234375 136.121094 43.589844 135.113281 45 134.171875 C 46.40625 133.230469 47.855469 132.359375 49.351562 131.5625 C 50.84375 130.761719 52.371094 130.039062 53.933594 129.390625 C 55.5 128.738281 57.089844 128.167969 58.710938 127.675781 C 60.332031 127.183594 61.972656 126.769531 63.632812 126.441406 C 65.292969 126.109375 66.964844 125.859375 68.648438 125.691406 C 70.335938 125.523438 72.023438 125.4375 73.71875 125.4375 L 125.4375 125.4375 L 125.4375 73.71875 C 125.4375 72.023438 125.523438 70.335938 125.691406 68.648438 C 125.859375 66.964844 126.109375 65.292969 126.441406 63.632812 C 126.769531 61.972656 127.183594 60.332031 127.675781 58.710938 C 128.167969 57.089844 128.738281 55.5 129.390625 53.933594 C 130.039062 52.371094 130.761719 50.84375 131.5625 49.351562 C 132.359375 47.855469 133.230469 46.40625 134.171875 45 C 135.113281 43.589844 136.121094 42.234375 137.195312 40.925781 C 138.269531 39.617188 139.40625 38.363281 140.601562 37.164062 C 141.800781 35.96875 143.050781 34.832031 144.359375 33.757812 C 145.667969 32.683594 147.027344 31.675781 148.433594 30.734375 C 149.84375 29.792969 151.292969 28.921875 152.785156 28.125 C 154.277344 27.324219 155.808594 26.601562 157.371094 25.953125 C 158.9375 25.304688 160.527344 24.734375 162.148438 24.238281 C 163.769531 23.746094 165.40625 23.335938 167.070312 23.003906 C 168.730469 22.671875 170.402344 22.421875 172.085938 22.253906 C 173.769531 22.085938 175.460938 22 177.152344 22 L 197.839844 22 C 202.378906 21.996094 206.84375 22.582031 211.226562 23.757812 C 215.613281 24.933594 219.769531 26.65625 223.699219 28.929688 C 224.257812 29.285156 224.777344 29.6875 225.257812 30.140625 C 225.738281 30.597656 226.167969 31.089844 226.554688 31.628906 C 226.941406 32.164062 227.269531 32.734375 227.546875 33.335938 C 227.824219 33.933594 228.039062 34.554688 228.199219 35.199219 C 228.355469 35.839844 228.449219 36.492188 228.480469 37.152344 C 228.515625 37.8125 228.484375 38.46875 228.390625 39.121094 C 228.296875 39.777344 228.140625 40.414062 227.925781 41.039062 C 227.710938 41.664062 227.4375 42.261719 227.105469 42.835938 C 226.777344 43.40625 226.394531 43.941406 225.960938 44.441406 C 225.527344 44.941406 225.050781 45.394531 224.53125 45.800781 C 224.007812 46.207031 223.457031 46.5625 222.867188 46.863281 C 222.277344 47.164062 221.667969 47.410156 221.03125 47.59375 C 220.398438 47.777344 219.75 47.898438 219.09375 47.960938 C 218.4375 48.019531 217.777344 48.015625 217.121094 47.949219 C 216.460938 47.886719 215.816406 47.757812 215.183594 47.566406 C 214.550781 47.378906 213.941406 47.128906 213.355469 46.824219 C 210.996094 45.46875 208.5 44.4375 205.871094 43.738281 C 203.238281 43.035156 200.5625 42.683594 197.839844 42.6875 L 177.152344 42.6875 C 176.136719 42.6875 175.125 42.738281 174.113281 42.835938 C 173.101562 42.9375 172.097656 43.085938 171.101562 43.28125 C 170.101562 43.480469 169.117188 43.726562 168.144531 44.023438 C 167.171875 44.316406 166.21875 44.660156 165.277344 45.046875 C 164.339844 45.4375 163.421875 45.871094 162.527344 46.351562 C 161.628906 46.828125 160.757812 47.351562 159.914062 47.917969 C 159.070312 48.480469 158.253906 49.085938 157.46875 49.730469 C 156.683594 50.375 155.929688 51.058594 155.210938 51.773438 C 154.492188 52.492188 153.8125 53.246094 153.167969 54.03125 C 152.523438 54.816406 151.917969 55.632812 151.351562 56.476562 C 150.789062 57.324219 150.265625 58.191406 149.785156 59.089844 C 149.308594 59.984375 148.875 60.902344 148.484375 61.84375 C 148.097656 62.78125 147.753906 63.738281 147.460938 64.710938 C 147.164062 65.683594 146.917969 66.667969 146.71875 67.664062 C 146.519531 68.660156 146.371094 69.664062 146.273438 70.675781 C 146.171875 71.6875 146.121094 72.703125 146.121094 73.71875 L 146.121094 135.777344 C 146.121094 136.457031 146.054688 137.132812 145.925781 137.796875 C 145.792969 138.464844 145.59375 139.109375 145.335938 139.738281 C 145.074219 140.363281 144.757812 140.960938 144.378906 141.527344 C 144.003906 142.089844 143.574219 142.613281 143.09375 143.09375 C 142.613281 143.574219 142.089844 144.003906 141.527344 144.378906 C 140.960938 144.757812 140.363281 145.074219 139.738281 145.335938 C 139.109375 145.59375 138.464844 145.792969 137.796875 145.925781 C 137.132812 146.054688 136.457031 146.121094 135.777344 146.121094 L 73.71875 146.121094 C 72.703125 146.121094 71.6875 146.171875 70.675781 146.273438 C 69.664062 146.371094 68.660156 146.519531 67.664062 146.71875 C 66.667969 146.917969 65.683594 147.164062 64.710938 147.460938 C 63.738281 147.753906 62.78125 148.097656 61.84375 148.484375 C 60.902344 148.875 59.984375 149.308594 59.089844 149.785156 C 58.191406 150.265625 57.324219 150.789062 56.476562 151.351562 C 55.632812 151.917969 54.816406 152.523438 54.03125 153.167969 C 53.246094 153.8125 52.492188 154.492188 51.773438 155.210938 C 51.058594 155.929688 50.375 156.683594 49.730469 157.46875 C 49.085938 158.253906 48.480469 159.070312 47.917969 159.914062 C 47.351562 160.757812 46.828125 161.628906 46.351562 162.527344 C 45.871094 163.421875 45.4375 164.339844 45.046875 165.277344 C 44.660156 166.21875 44.316406 167.171875 44.023438 168.144531 C 43.726562 169.117188 43.480469 170.101562 43.28125 171.101562 C 43.085938 172.097656 42.9375 173.101562 42.835938 174.113281 C 42.738281 175.125 42.6875 176.136719 42.6875 177.152344 L 42.6875 197.839844 C 42.6875 198.855469 42.738281 199.871094 42.835938 200.882812 C 42.9375 201.894531 43.085938 202.898438 43.28125 203.894531 C 43.480469 204.890625 43.726562 205.875 44.023438 206.847656 C 44.316406 207.820312 44.660156 208.777344 45.046875 209.714844 C 45.4375 210.65625 45.871094 211.574219 46.351562 212.46875 C 46.828125 213.363281 47.351562 214.234375 47.917969 215.082031 C 48.480469 215.925781 49.085938 216.742188 49.730469 217.527344 C 50.375 218.3125 51.058594 219.066406 51.773438 219.78125 C 52.492188 220.5 53.246094 221.183594 54.03125 221.828125 C 54.816406 222.472656 55.632812 223.078125 56.476562 223.640625 C 57.324219 224.207031 58.191406 224.730469 59.089844 225.207031 C 59.984375 225.6875 60.902344 226.121094 61.84375 226.511719 C 62.78125 226.898438 63.738281 227.242188 64.710938 227.535156 C 65.683594 227.832031 66.667969 228.078125 67.664062 228.277344 C 68.660156 228.472656 69.664062 228.621094 70.675781 228.722656 C 71.6875 228.820312 72.703125 228.871094 73.71875 228.871094 L 135.777344 228.871094 C 136.457031 228.871094 137.132812 228.9375 137.796875 229.070312 C 138.464844 229.203125 139.109375 229.398438 139.738281 229.660156 C 140.363281 229.917969 140.960938 230.238281 141.527344 230.613281 C 142.089844 230.992188 142.613281 231.421875 143.09375 231.902344 C 143.574219 232.382812 144.003906 232.902344 144.378906 233.46875 C 144.757812 234.035156 145.074219 234.628906 145.335938 235.257812 C 145.59375 235.882812 145.792969 236.53125 145.925781 237.199219 C 146.054688 237.863281 146.121094 238.535156 146.121094 239.214844 L 146.121094 301.277344 C 146.121094 302.292969 146.171875 303.308594 146.273438 304.320312 C 146.371094 305.332031 146.519531 306.335938 146.71875 307.332031 C 146.917969 308.328125 147.164062 309.3125 147.460938 310.285156 C 147.753906 311.257812 148.097656 312.214844 148.484375 313.152344 C 148.875 314.089844 149.308594 315.007812 149.785156 315.90625 C 150.265625 316.800781 150.789062 317.671875 151.351562 318.515625 C 151.917969 319.363281 152.523438 320.175781 153.167969 320.964844 C 153.8125 321.75 154.492188 322.5 155.210938 323.21875 C 155.929688 323.9375 156.683594 324.621094 157.46875 325.265625 C 158.253906 325.910156 159.070312 326.515625 159.914062 327.078125 C 160.757812 327.644531 161.628906 328.164062 162.527344 328.644531 C 163.421875 329.125 164.339844 329.558594 165.277344 329.945312 C 166.21875 330.335938 167.171875 330.675781 168.144531 330.972656 C 169.117188 331.265625 170.101562 331.511719 171.101562 331.710938 C 172.097656 331.910156 173.101562 332.058594 174.113281 332.160156 C 175.125 332.257812 176.136719 332.308594 177.152344 332.308594 L 197.839844 332.308594 C 198.855469 332.308594 199.871094 332.257812 200.882812 332.160156 C 201.894531 332.058594 202.898438 331.910156 203.894531 331.710938 C 204.890625 331.511719 205.875 331.265625 206.847656 330.972656 C 207.820312 330.675781 208.777344 330.335938 209.714844 329.945312 C 210.65625 329.558594 211.574219 329.125 212.46875 328.644531 C 213.363281 328.164062 214.234375 327.644531 215.082031 327.078125 C 215.925781 326.515625 216.742188 325.910156 217.527344 325.265625 C 218.3125 324.621094 219.066406 323.9375 219.78125 323.21875 C 220.5 322.5 221.183594 321.75 221.828125 320.964844 C 222.472656 320.175781 223.078125 319.363281 223.640625 318.515625 C 224.207031 317.671875 224.730469 316.800781 225.207031 315.90625 C 225.6875 315.007812 226.121094 314.089844 226.511719 313.152344 C 226.898438 312.214844 227.242188 311.257812 227.535156 310.285156 C 227.832031 309.3125 228.078125 308.328125 228.277344 307.332031 C 228.472656 306.335938 228.621094 305.332031 228.722656 304.320312 C 228.820312 303.308594 228.871094 302.292969 228.871094 301.277344 L 228.871094 239.214844 C 228.871094 238.535156 228.9375 237.863281 229.070312 237.199219 C 229.203125 236.53125 229.398438 235.882812 229.660156 235.257812 C 229.917969 234.628906 230.238281 234.035156 230.613281 233.46875 C 230.992188 232.902344 231.421875 232.382812 231.902344 231.902344 C 232.382812 231.421875 232.902344 230.992188 233.46875 230.613281 C 234.035156 230.238281 234.628906 229.917969 235.257812 229.660156 C 235.882812 229.398438 236.53125 229.203125 237.199219 229.070312 C 237.863281 228.9375 238.535156 228.871094 239.214844 228.871094 L 301.277344 228.871094 C 302.292969 228.871094 303.308594 228.820312 304.320312 228.722656 C 305.332031 228.621094 306.335938 228.472656 307.332031 228.277344 C 308.328125 228.078125 309.3125 227.832031 310.285156 227.535156 C 311.257812 227.242188 312.214844 226.898438 313.152344 226.511719 C 314.089844 226.121094 315.007812 225.6875 315.90625 225.207031 C 316.800781 224.730469 317.671875 224.207031 318.515625 223.640625 C 319.363281 223.078125 320.175781 222.472656 320.964844 221.828125 C 321.75 221.183594 322.5 220.5 323.21875 219.78125 C 323.9375 219.066406 324.621094 218.3125 325.265625 217.527344 C 325.910156 216.742188 326.515625 215.925781 327.078125 215.082031 C 327.644531 214.234375 328.164062 213.363281 328.644531 212.46875 C 329.125 211.574219 329.558594 210.65625 329.945312 209.714844 C 330.335938 208.777344 330.675781 207.820312 330.972656 206.847656 C 331.265625 205.875 331.511719 204.890625 331.710938 203.894531 C 331.910156 202.898438 332.058594 201.894531 332.160156 200.882812 C 332.257812 199.871094 332.308594 198.855469 332.308594 197.839844 L 332.308594 177.152344 C 332.308594 174.429688 331.960938 171.753906 331.257812 169.125 C 330.558594 166.492188 329.527344 164 328.171875 161.636719 C 327.863281 161.054688 327.617188 160.445312 327.425781 159.808594 C 327.238281 159.175781 327.109375 158.53125 327.042969 157.875 C 326.976562 157.21875 326.976562 156.558594 327.035156 155.902344 C 327.097656 155.242188 327.21875 154.597656 327.402344 153.960938 C 327.585938 153.328125 327.828125 152.714844 328.128906 152.128906 C 328.429688 151.539062 328.785156 150.984375 329.195312 150.464844 C 329.601562 149.945312 330.054688 149.46875 330.554688 149.035156 C 331.050781 148.601562 331.585938 148.21875 332.160156 147.886719 C 332.730469 147.558594 333.332031 147.285156 333.953125 147.070312 C 334.578125 146.851562 335.21875 146.699219 335.871094 146.605469 C 336.527344 146.511719 337.183594 146.480469 337.84375 146.511719 C 338.503906 146.546875 339.15625 146.640625 339.796875 146.796875 C 340.4375 146.953125 341.058594 147.171875 341.660156 147.449219 C 342.261719 147.722656 342.828125 148.054688 343.367188 148.441406 C 343.902344 148.824219 344.398438 149.257812 344.851562 149.738281 C 345.304688 150.21875 345.710938 150.738281 346.066406 151.292969 C 348.339844 155.222656 350.0625 159.382812 351.238281 163.765625 C 352.414062 168.152344 353 172.613281 352.996094 177.152344 L 352.996094 197.839844 C 352.992188 199.535156 352.910156 201.222656 352.742188 202.910156 C 352.574219 204.59375 352.324219 206.265625 351.992188 207.925781 C 351.660156 209.585938 351.246094 211.226562 350.753906 212.847656 C 350.261719 214.46875 349.691406 216.058594 349.042969 217.625 C 348.394531 219.1875 347.667969 220.714844 346.871094 222.207031 C 346.070312 223.703125 345.203125 225.152344 344.261719 226.558594 C 343.320312 227.96875 342.3125 229.324219 341.238281 230.632812 C 340.164062 231.941406 339.027344 233.195312 337.828125 234.394531 C 336.632812 235.589844 335.378906 236.726562 334.070312 237.800781 C 332.761719 238.875 331.402344 239.882812 329.996094 240.824219 C 328.589844 241.765625 327.136719 242.636719 325.644531 243.433594 C 324.152344 244.234375 322.625 244.957031 321.058594 245.605469 C 319.496094 246.253906 317.902344 246.824219 316.285156 247.316406 C 314.664062 247.8125 313.023438 248.222656 311.363281 248.554688 C 309.703125 248.886719 308.03125 249.136719 306.34375 249.304688 C 304.660156 249.472656 302.96875 249.558594 301.277344 249.558594 L 249.558594 249.558594 L 249.558594 301.277344 C 249.558594 302.96875 249.472656 304.660156 249.304688 306.34375 C 249.136719 308.03125 248.886719 309.703125 248.554688 311.363281 C 248.222656 313.023438 247.8125 314.664062 247.316406 316.285156 C 246.824219 317.902344 246.253906 319.496094 245.605469 321.058594 C 244.957031 322.625 244.234375 324.152344 243.433594 325.644531 C 242.636719 327.136719 241.765625 328.589844 240.824219 329.996094 C 239.882812 331.402344 238.875 332.761719 237.800781 334.070312 C 236.726562 335.378906 235.589844 336.632812 234.394531 337.828125 C 233.195312 339.027344 231.941406 340.164062 230.632812 341.238281 C 229.324219 342.3125 227.96875 343.320312 226.558594 344.261719 C 225.152344 345.203125 223.703125 346.070312 222.207031 346.871094 C 220.714844 347.667969 219.1875 348.394531 217.625 349.042969 C 216.058594 349.691406 214.46875 350.261719 212.847656 350.753906 C 211.226562 351.246094 209.585938 351.660156 207.925781 351.992188 C 206.265625 352.324219 204.59375 352.574219 202.910156 352.742188 C 201.222656 352.910156 199.535156 352.992188 197.839844 352.996094 Z M 197.839844 352.996094 " fill-opacity="1" fill-rule="nonzero"/></g><path fill="#3cacae" d="M 249.558594 187.496094 C 247.46875 187.496094 245.554688 186.917969 243.820312 185.757812 C 236.992188 181.207031 177.152344 140.289062 177.152344 104.75 C 177.15625 102.660156 177.3125 100.582031 177.628906 98.519531 C 177.945312 96.453125 178.414062 94.425781 179.039062 92.433594 C 179.660156 90.441406 180.429688 88.503906 181.347656 86.628906 C 182.261719 84.75 183.316406 82.953125 184.503906 81.238281 C 185.691406 79.519531 187 77.902344 188.433594 76.382812 C 189.867188 74.863281 191.40625 73.460938 193.054688 72.175781 C 194.699219 70.890625 196.433594 69.734375 198.253906 68.710938 C 200.074219 67.6875 201.960938 66.808594 203.914062 66.070312 C 205.867188 65.332031 207.867188 64.746094 209.90625 64.308594 C 211.949219 63.875 214.015625 63.597656 216.097656 63.472656 C 218.183594 63.351562 220.265625 63.386719 222.34375 63.578125 C 224.425781 63.769531 226.476562 64.121094 228.503906 64.625 C 230.53125 65.125 232.507812 65.78125 234.4375 66.582031 C 236.363281 67.386719 238.21875 68.328125 240.003906 69.414062 C 241.789062 70.496094 243.484375 71.710938 245.085938 73.050781 C 246.6875 74.390625 248.179688 75.84375 249.558594 77.410156 C 250.941406 75.84375 252.433594 74.390625 254.035156 73.050781 C 255.632812 71.710938 257.328125 70.496094 259.113281 69.414062 C 260.898438 68.328125 262.753906 67.386719 264.683594 66.582031 C 266.609375 65.78125 268.585938 65.125 270.613281 64.625 C 272.640625 64.121094 274.695312 63.769531 276.773438 63.578125 C 278.851562 63.386719 280.933594 63.351562 283.019531 63.472656 C 285.105469 63.597656 287.167969 63.875 289.210938 64.308594 C 291.253906 64.746094 293.25 65.332031 295.203125 66.070312 C 297.160156 66.808594 299.046875 67.6875 300.867188 68.710938 C 302.6875 69.734375 304.417969 70.890625 306.066406 72.175781 C 307.710938 73.460938 309.25 74.863281 310.683594 76.382812 C 312.117188 77.902344 313.425781 79.519531 314.617188 81.238281 C 315.804688 82.953125 316.855469 84.75 317.773438 86.628906 C 318.6875 88.503906 319.457031 90.441406 320.082031 92.433594 C 320.703125 94.425781 321.171875 96.453125 321.488281 98.519531 C 321.804688 100.582031 321.964844 102.660156 321.964844 104.75 C 321.964844 140.289062 262.125 181.207031 255.300781 185.757812 C 253.5625 186.917969 251.648438 187.496094 249.558594 187.496094 Z M 218.527344 84.0625 C 217.851562 84.0625 217.175781 84.09375 216.5 84.160156 C 215.828125 84.226562 215.15625 84.328125 214.492188 84.457031 C 213.828125 84.589844 213.171875 84.753906 212.523438 84.953125 C 211.875 85.148438 211.238281 85.375 210.613281 85.636719 C 209.984375 85.894531 209.375 86.183594 208.777344 86.503906 C 208.179688 86.824219 207.597656 87.171875 207.035156 87.546875 C 206.472656 87.925781 205.929688 88.328125 205.40625 88.757812 C 204.878906 89.1875 204.378906 89.640625 203.898438 90.121094 C 203.421875 90.597656 202.964844 91.101562 202.535156 91.625 C 202.105469 92.148438 201.703125 92.691406 201.328125 93.253906 C 200.949219 93.820312 200.601562 94.398438 200.285156 94.996094 C 199.964844 95.59375 199.675781 96.207031 199.414062 96.832031 C 199.15625 97.457031 198.929688 98.09375 198.730469 98.742188 C 198.535156 99.390625 198.371094 100.046875 198.238281 100.710938 C 198.105469 101.378906 198.007812 102.046875 197.941406 102.71875 C 197.875 103.394531 197.839844 104.070312 197.839844 104.75 C 197.839844 120.957031 226.398438 147.996094 249.558594 164.574219 C 271.613281 148.769531 301.277344 121.753906 301.277344 104.75 C 301.277344 104.070312 301.242188 103.394531 301.175781 102.71875 C 301.109375 102.046875 301.011719 101.378906 300.878906 100.710938 C 300.746094 100.046875 300.582031 99.390625 300.386719 98.742188 C 300.191406 98.09375 299.960938 97.457031 299.703125 96.832031 C 299.441406 96.207031 299.152344 95.59375 298.835938 94.996094 C 298.515625 94.398438 298.167969 93.820312 297.789062 93.253906 C 297.414062 92.691406 297.011719 92.148438 296.582031 91.625 C 296.152344 91.101562 295.695312 90.597656 295.21875 90.121094 C 294.738281 89.640625 294.238281 89.1875 293.714844 88.757812 C 293.191406 88.328125 292.648438 87.925781 292.082031 87.546875 C 291.519531 87.171875 290.941406 86.824219 290.34375 86.503906 C 289.746094 86.183594 289.132812 85.894531 288.507812 85.636719 C 287.878906 85.375 287.242188 85.148438 286.59375 84.953125 C 285.945312 84.753906 285.289062 84.589844 284.625 84.457031 C 283.960938 84.328125 283.292969 84.226562 282.617188 84.160156 C 281.945312 84.09375 281.269531 84.0625 280.589844 84.0625 C 279.914062 84.0625 279.238281 84.09375 278.5625 84.160156 C 277.886719 84.226562 277.21875 84.328125 276.554688 84.457031 C 275.890625 84.589844 275.234375 84.753906 274.585938 84.953125 C 273.9375 85.148438 273.300781 85.375 272.671875 85.636719 C 272.046875 85.894531 271.4375 86.183594 270.839844 86.503906 C 270.242188 86.824219 269.660156 87.171875 269.097656 87.546875 C 268.535156 87.925781 267.988281 88.328125 267.464844 88.757812 C 266.941406 89.1875 266.441406 89.640625 265.960938 90.121094 C 265.484375 90.597656 265.027344 91.101562 264.597656 91.625 C 264.167969 92.148438 263.765625 92.691406 263.390625 93.253906 C 263.011719 93.820312 262.664062 94.398438 262.34375 94.996094 C 262.027344 95.59375 261.738281 96.207031 261.476562 96.832031 C 261.21875 97.457031 260.988281 98.09375 260.792969 98.742188 C 260.597656 99.390625 260.433594 100.046875 260.300781 100.710938 C 260.167969 101.378906 260.070312 102.046875 260.003906 102.71875 C 259.9375 103.394531 259.902344 104.070312 259.902344 104.75 C 259.902344 105.425781 259.835938 106.101562 259.703125 106.765625 C 259.570312 107.433594 259.375 108.078125 259.117188 108.707031 C 258.855469 109.335938 258.535156 109.929688 258.160156 110.496094 C 257.78125 111.058594 257.351562 111.582031 256.875 112.0625 C 256.394531 112.542969 255.871094 112.972656 255.304688 113.347656 C 254.742188 113.726562 254.144531 114.042969 253.515625 114.304688 C 252.890625 114.566406 252.242188 114.761719 251.578125 114.894531 C 250.910156 115.027344 250.238281 115.09375 249.558594 115.09375 C 248.878906 115.09375 248.207031 115.027344 247.542969 114.894531 C 246.875 114.761719 246.226562 114.566406 245.601562 114.304688 C 244.972656 114.042969 244.378906 113.726562 243.8125 113.347656 C 243.246094 112.972656 242.726562 112.542969 242.246094 112.0625 C 241.765625 111.582031 241.335938 111.058594 240.957031 110.496094 C 240.582031 109.929688 240.261719 109.335938 240.003906 108.707031 C 239.742188 108.078125 239.546875 107.433594 239.414062 106.765625 C 239.28125 106.101562 239.214844 105.425781 239.214844 104.75 C 239.214844 104.070312 239.183594 103.394531 239.117188 102.71875 C 239.050781 102.046875 238.949219 101.378906 238.816406 100.710938 C 238.6875 100.046875 238.519531 99.390625 238.324219 98.742188 C 238.128906 98.09375 237.898438 97.457031 237.640625 96.832031 C 237.382812 96.207031 237.09375 95.59375 236.773438 94.996094 C 236.453125 94.398438 236.105469 93.820312 235.730469 93.253906 C 235.351562 92.691406 234.949219 92.148438 234.519531 91.625 C 234.089844 91.101562 233.636719 90.597656 233.15625 90.121094 C 232.675781 89.640625 232.175781 89.1875 231.652344 88.757812 C 231.128906 88.328125 230.585938 87.925781 230.023438 87.546875 C 229.457031 87.171875 228.878906 86.824219 228.28125 86.503906 C 227.683594 86.183594 227.070312 85.894531 226.445312 85.636719 C 225.820312 85.375 225.183594 85.148438 224.535156 84.953125 C 223.886719 84.753906 223.230469 84.589844 222.5625 84.457031 C 221.898438 84.328125 221.230469 84.226562 220.554688 84.160156 C 219.882812 84.09375 219.207031 84.0625 218.527344 84.0625 Z M 218.527344 84.0625 " fill-opacity="1" fill-rule="nonzero"/></svg>