<svg xmlns="http://www.w3.org/2000/svg" xmlns:xlink="http://www.w3.org/1999/xlink" version="1.1" x="0px" y="0px" viewBox="0 0 100 100" style="enable-background:new 0 0 100 100;max-width:100%" xml:space="preserve" height="100%"><path d="M84.9,76.5c0.8,0.8,0.8,2,0,2.8l-0.2,0.2c-10.1,10.1-26.6,10.1-36.8,0L20.5,52.1c-4.9-4.9-7.6-11.4-7.6-18.4  c0-7,2.7-13.5,7.6-18.4l0.2-0.2c0.4-0.4,0.9-0.6,1.4-0.6c0.5,0,1,0.2,1.4,0.6l14.3,14.3c0.8,0.8,0.8,2,0,2.8l-4.3,4.3  c-1.5,1.5-2.3,3.5-2.3,5.6c0,2.1,0.8,4.2,2.4,5.7l18.6,18.6c3.1,3.1,8.2,3.1,11.3,0l4.3-4.3c0.8-0.8,2-0.8,2.8,0L84.9,76.5z   M84.1,23.9h-6c-1.1,0-2-0.9-2-2v-6c0-1.7-1.3-3-3-3s-3,1.3-3,3v6c0,1.1-0.9,2-2,2h-6c-1.7,0-3,1.3-3,3c0,1.6,1.3,3,3,3h6  c1.1,0,2,0.9,2,2v6c0,1.6,1.3,3,3,3s3-1.4,3-3v-6c0-1.1,0.9-2,2-2h6c1.7,0,3-1.4,3-3C87.1,25.2,85.8,23.9,84.1,23.9z" style="" fill="currentColor"></path></svg>