<svg xmlns="http://www.w3.org/2000/svg" xmlns:xlink="http://www.w3.org/1999/xlink" width="500" zoomAndPan="magnify" viewBox="0 0 375 374.999991" height="500" preserveAspectRatio="xMidYMid meet" version="1.0"><defs><clipPath id="16d56051c2"><path d="M 142 23 L 353.871094 23 L 353.871094 182 L 142 182 Z M 142 23 " clip-rule="nonzero"/></clipPath><clipPath id="487ab69004"><path d="M 20.871094 141 L 180 141 L 180 352.203125 L 20.871094 352.203125 Z M 20.871094 141 " clip-rule="nonzero"/></clipPath></defs><path fill="#3cacae" d="M 25.378906 68.03125 L 25.378906 43.402344 C 25.378906 42.777344 25.40625 42.15625 25.46875 41.535156 C 25.53125 40.914062 25.621094 40.296875 25.742188 39.6875 C 25.863281 39.074219 26.015625 38.472656 26.199219 37.875 C 26.378906 37.277344 26.589844 36.691406 26.828125 36.113281 C 27.066406 35.539062 27.332031 34.976562 27.625 34.425781 C 27.921875 33.875 28.238281 33.339844 28.585938 32.820312 C 28.933594 32.304688 29.304688 31.804688 29.699219 31.320312 C 30.09375 30.839844 30.515625 30.378906 30.953125 29.9375 C 31.394531 29.496094 31.859375 29.078125 32.339844 28.679688 C 32.820312 28.285156 33.320312 27.914062 33.839844 27.566406 C 34.359375 27.222656 34.894531 26.902344 35.445312 26.605469 C 35.992188 26.3125 36.558594 26.046875 37.132812 25.808594 C 37.710938 25.570312 38.296875 25.359375 38.894531 25.179688 C 39.488281 24.996094 40.09375 24.847656 40.707031 24.722656 C 41.316406 24.601562 41.933594 24.511719 42.554688 24.449219 C 43.175781 24.390625 43.796875 24.359375 44.421875 24.359375 L 163.886719 24.359375 C 164.507812 24.359375 165.132812 24.390625 165.753906 24.449219 C 166.371094 24.511719 166.988281 24.601562 167.601562 24.722656 C 168.210938 24.847656 168.816406 24.996094 169.414062 25.179688 C 170.011719 25.359375 170.597656 25.570312 171.171875 25.808594 C 171.75 26.046875 172.3125 26.3125 172.863281 26.605469 C 173.414062 26.902344 173.945312 27.222656 174.464844 27.566406 C 174.984375 27.914062 175.484375 28.285156 175.964844 28.679688 C 176.449219 29.078125 176.910156 29.496094 177.351562 29.9375 C 177.792969 30.378906 178.210938 30.839844 178.605469 31.320312 C 179.003906 31.804688 179.371094 32.304688 179.71875 32.820312 C 180.066406 33.339844 180.386719 33.875 180.679688 34.425781 C 180.972656 34.976562 181.242188 35.539062 181.480469 36.113281 C 181.71875 36.691406 181.929688 37.277344 182.109375 37.875 C 182.289062 38.472656 182.441406 39.074219 182.5625 39.6875 C 182.683594 40.296875 182.777344 40.914062 182.835938 41.535156 C 182.898438 42.15625 182.929688 42.777344 182.929688 43.402344 L 182.929688 67.96875 C 183.0625 73.984375 182.386719 79.910156 180.898438 85.742188 L 178.105469 83.773438 C 176.183594 82.339844 174.195312 81.003906 172.136719 79.773438 C 170.027344 78.515625 167.785156 77.5625 165.414062 76.917969 C 163.042969 76.269531 160.628906 75.953125 158.171875 75.964844 C 156.363281 75.964844 154.574219 76.136719 152.796875 76.480469 C 151.023438 76.828125 149.296875 77.339844 147.621094 78.019531 C 145.945312 78.699219 144.351562 79.535156 142.835938 80.523438 C 141.324219 81.515625 139.917969 82.640625 138.621094 83.902344 C 137.335938 85.136719 136.183594 86.484375 135.164062 87.949219 C 134.144531 89.410156 133.28125 90.960938 132.566406 92.59375 C 131.851562 94.226562 131.304688 95.914062 130.925781 97.65625 C 130.546875 99.398438 130.339844 101.160156 130.304688 102.945312 C 130.292969 103.808594 130.320312 104.671875 130.390625 105.535156 C 130.460938 106.398438 130.566406 107.257812 130.71875 108.109375 C 130.867188 108.960938 131.058594 109.804688 131.285156 110.640625 C 131.515625 111.476562 131.785156 112.296875 132.089844 113.105469 C 132.398438 113.917969 132.742188 114.710938 133.121094 115.488281 C 133.503906 116.261719 133.921875 117.019531 134.375 117.757812 C 134.828125 118.496094 135.3125 119.210938 135.832031 119.902344 C 136.355469 120.59375 136.90625 121.261719 137.488281 121.902344 C 138.070312 122.539062 138.683594 123.152344 139.324219 123.734375 C 139.964844 124.316406 140.632812 124.867188 141.324219 125.386719 C 142.015625 125.90625 142.730469 126.390625 143.46875 126.84375 C 144.207031 127.292969 144.964844 127.710938 145.742188 128.089844 C 146.519531 128.472656 147.316406 128.816406 148.125 129.121094 C 148.933594 129.425781 149.757812 129.691406 150.589844 129.921875 C 151.425781 130.148438 152.269531 130.335938 153.125 130.484375 C 153.976562 130.636719 154.835938 130.742188 155.695312 130.8125 L 158.425781 130.8125 C 160.914062 130.804688 163.355469 130.460938 165.75 129.785156 C 168.140625 129.105469 170.398438 128.113281 172.519531 126.8125 C 174.359375 125.734375 176.265625 124.398438 178.042969 123.128906 L 181.214844 120.972656 C 182.671875 126.808594 183.347656 132.730469 183.246094 138.746094 L 182.929688 163.121094 C 182.929688 163.746094 182.898438 164.367188 182.835938 164.988281 C 182.777344 165.609375 182.683594 166.222656 182.5625 166.835938 C 182.441406 167.449219 182.289062 168.050781 182.109375 168.648438 C 181.929688 169.246094 181.71875 169.832031 181.480469 170.410156 C 181.242188 170.984375 180.972656 171.546875 180.679688 172.097656 C 180.386719 172.648438 180.066406 173.183594 179.71875 173.699219 C 179.371094 174.21875 179.003906 174.71875 178.605469 175.203125 C 178.210938 175.683594 177.792969 176.144531 177.351562 176.585938 C 176.910156 177.027344 176.449219 177.445312 175.964844 177.839844 C 175.484375 178.238281 174.984375 178.609375 174.464844 178.953125 C 173.945312 179.300781 173.414062 179.621094 172.863281 179.914062 C 172.3125 180.210938 171.75 180.476562 171.171875 180.714844 C 170.597656 180.953125 170.011719 181.164062 169.414062 181.34375 C 168.816406 181.523438 168.210938 181.675781 167.601562 181.796875 C 166.988281 181.917969 166.371094 182.011719 165.753906 182.074219 C 165.132812 182.132812 164.507812 182.164062 163.886719 182.164062 L 139.511719 182.164062 C 133.246094 182.335938 127.132812 181.46875 121.164062 179.5625 C 122.054688 177.910156 123.515625 175.753906 124.53125 174.230469 C 125.546875 172.707031 126.6875 171.054688 127.640625 169.53125 C 128.933594 167.410156 129.917969 165.152344 130.585938 162.757812 C 131.253906 160.367188 131.585938 157.925781 131.574219 155.441406 C 131.539062 154.5625 131.457031 153.6875 131.335938 152.816406 C 131.214844 151.945312 131.050781 151.082031 130.847656 150.226562 C 130.644531 149.371094 130.398438 148.527344 130.113281 147.695312 C 129.832031 146.863281 129.507812 146.046875 129.144531 145.246094 C 128.785156 144.445312 128.382812 143.664062 127.949219 142.902344 C 127.511719 142.136719 127.039062 141.398438 126.53125 140.679688 C 126.023438 139.960938 125.484375 139.269531 124.910156 138.601562 C 124.339844 137.9375 123.734375 137.296875 123.101562 136.6875 C 122.46875 136.078125 121.804688 135.503906 121.117188 134.957031 C 120.425781 134.410156 119.714844 133.898438 118.976562 133.417969 C 118.238281 132.941406 117.480469 132.5 116.699219 132.09375 C 115.917969 131.6875 115.121094 131.320312 114.308594 130.992188 C 113.492188 130.660156 112.664062 130.371094 111.820312 130.121094 C 110.980469 129.867188 110.125 129.660156 109.261719 129.488281 C 108.402344 129.320312 107.53125 129.191406 106.65625 129.105469 C 105.78125 129.019531 104.90625 128.972656 104.027344 128.96875 L 102.503906 128.96875 C 101.335938 128.984375 100.171875 129.078125 99.015625 129.246094 C 97.859375 129.417969 96.71875 129.664062 95.59375 129.984375 C 94.472656 130.304688 93.375 130.695312 92.300781 131.164062 C 91.230469 131.628906 90.195312 132.164062 89.195312 132.765625 C 88.191406 133.371094 87.234375 134.035156 86.324219 134.765625 C 85.410156 135.496094 84.550781 136.285156 83.742188 137.128906 C 82.933594 137.972656 82.183594 138.867188 81.496094 139.808594 C 80.804688 140.75 80.179688 141.738281 79.621094 142.761719 C 79.058594 143.789062 78.570312 144.847656 78.152344 145.9375 C 77.730469 147.027344 77.386719 148.140625 77.113281 149.277344 C 76.84375 150.414062 76.648438 151.5625 76.527344 152.726562 C 76.40625 153.890625 76.363281 155.054688 76.398438 156.222656 C 76.433594 157.390625 76.546875 158.550781 76.734375 159.703125 C 76.921875 160.859375 77.1875 161.996094 77.523438 163.113281 C 77.863281 164.230469 78.273438 165.320312 78.757812 166.386719 C 79.242188 167.449219 79.792969 168.476562 80.414062 169.46875 C 81.300781 170.992188 82.378906 172.578125 83.460938 174.164062 C 84.539062 175.753906 86 177.847656 86.886719 179.5 C 80.917969 181.402344 74.804688 182.269531 68.542969 182.101562 L 44.292969 182.101562 C 43.671875 182.101562 43.046875 182.070312 42.425781 182.007812 C 41.804688 181.949219 41.191406 181.855469 40.578125 181.734375 C 39.96875 181.613281 39.363281 181.460938 38.765625 181.28125 C 38.167969 181.097656 37.582031 180.890625 37.007812 180.652344 C 36.429688 180.414062 35.867188 180.144531 35.316406 179.851562 C 34.765625 179.558594 34.230469 179.238281 33.714844 178.890625 C 33.195312 178.542969 32.695312 178.171875 32.210938 177.777344 C 31.730469 177.382812 31.269531 176.964844 30.828125 176.523438 C 30.386719 176.082031 29.96875 175.621094 29.574219 175.136719 C 29.175781 174.65625 28.804688 174.15625 28.460938 173.636719 C 28.113281 173.117188 27.792969 172.585938 27.5 172.035156 C 27.203125 171.484375 26.9375 170.921875 26.699219 170.34375 C 26.460938 169.769531 26.25 169.183594 26.070312 168.585938 C 25.890625 167.988281 25.738281 167.382812 25.617188 166.773438 C 25.496094 166.160156 25.402344 165.542969 25.34375 164.925781 C 25.28125 164.304688 25.25 163.679688 25.25 163.058594 L 25.25 138.617188 Z M 25.378906 68.03125 " fill-opacity="1" fill-rule="nonzero"/><path fill="#3cacae" d="M 348.480469 308.039062 L 348.480469 332.480469 C 348.480469 333.101562 348.449219 333.726562 348.386719 334.347656 C 348.324219 334.964844 348.234375 335.582031 348.113281 336.195312 C 347.992188 336.804688 347.839844 337.410156 347.660156 338.007812 C 347.476562 338.605469 347.269531 339.191406 347.027344 339.765625 C 346.789062 340.34375 346.523438 340.90625 346.230469 341.457031 C 345.9375 342.007812 345.617188 342.539062 345.269531 343.058594 C 344.921875 343.578125 344.550781 344.078125 344.15625 344.558594 C 343.761719 345.042969 343.34375 345.503906 342.902344 345.945312 C 342.460938 346.386719 342 346.804688 341.515625 347.199219 C 341.035156 347.59375 340.535156 347.964844 340.015625 348.3125 C 339.496094 348.660156 338.960938 348.980469 338.414062 349.273438 C 337.863281 349.566406 337.300781 349.835938 336.722656 350.074219 C 336.148438 350.3125 335.558594 350.519531 334.964844 350.703125 C 334.367188 350.882812 333.761719 351.035156 333.152344 351.15625 C 332.539062 351.277344 331.921875 351.371094 331.300781 351.429688 C 330.679688 351.492188 330.058594 351.523438 329.433594 351.523438 L 209.398438 351.523438 C 208.777344 351.523438 208.152344 351.492188 207.53125 351.429688 C 206.910156 351.371094 206.296875 351.277344 205.683594 351.15625 C 205.070312 351.035156 204.46875 350.882812 203.871094 350.703125 C 203.273438 350.519531 202.6875 350.3125 202.113281 350.074219 C 201.535156 349.835938 200.972656 349.566406 200.421875 349.273438 C 199.871094 348.980469 199.335938 348.660156 198.820312 348.3125 C 198.300781 347.964844 197.800781 347.59375 197.316406 347.199219 C 196.835938 346.804688 196.375 346.386719 195.933594 345.945312 C 195.492188 345.503906 195.074219 345.042969 194.679688 344.558594 C 194.28125 344.078125 193.910156 343.578125 193.566406 343.058594 C 193.21875 342.539062 192.898438 342.007812 192.605469 341.457031 C 192.308594 340.90625 192.042969 340.34375 191.804688 339.765625 C 191.566406 339.191406 191.355469 338.605469 191.175781 338.007812 C 190.996094 337.410156 190.84375 336.804688 190.722656 336.195312 C 190.601562 335.582031 190.507812 334.964844 190.449219 334.347656 C 190.386719 333.726562 190.355469 333.101562 190.355469 332.480469 L 190.355469 307.722656 C 190.355469 295.851562 188.769531 275.984375 177.976562 275.984375 C 175.695312 276.296875 173.507812 276.941406 171.421875 277.914062 C 169.332031 278.886719 167.433594 280.148438 165.726562 281.695312 C 164.203125 282.777344 162.550781 283.980469 160.902344 284.933594 C 158.554688 286.335938 156.015625 287.054688 153.285156 287.09375 L 152.332031 287.09375 C 151.394531 287.070312 150.464844 286.957031 149.546875 286.757812 C 148.628906 286.558594 147.738281 286.273438 146.871094 285.90625 C 146.007812 285.535156 145.1875 285.089844 144.40625 284.566406 C 143.625 284.039062 142.902344 283.445312 142.238281 282.785156 C 141.570312 282.121094 140.972656 281.402344 140.441406 280.628906 C 139.910156 279.851562 139.457031 279.035156 139.082031 278.171875 C 138.707031 277.308594 138.417969 276.421875 138.210938 275.503906 C 138.003906 274.585938 137.886719 273.660156 137.855469 272.71875 C 137.824219 271.78125 137.882812 270.847656 138.03125 269.917969 C 138.179688 268.992188 138.410156 268.085938 138.730469 267.199219 C 139.050781 266.316406 139.449219 265.472656 139.929688 264.664062 C 140.40625 263.855469 140.957031 263.097656 141.582031 262.394531 C 142.203125 261.691406 142.886719 261.054688 143.632812 260.480469 C 144.378906 259.90625 145.167969 259.40625 146.007812 258.984375 C 146.847656 258.558594 147.71875 258.21875 148.621094 257.960938 C 149.523438 257.703125 150.445312 257.53125 151.378906 257.449219 L 153.15625 257.449219 C 155.929688 257.492188 158.492188 258.253906 160.839844 259.734375 C 162.617188 260.8125 164.203125 261.957031 165.726562 263.097656 C 167.441406 264.679688 169.351562 265.964844 171.464844 266.949219 C 173.578125 267.9375 175.792969 268.578125 178.105469 268.875 C 188.324219 268.875 190.484375 251.609375 190.484375 237.136719 L 190.484375 212.507812 C 190.484375 211.882812 190.511719 211.261719 190.574219 210.640625 C 190.636719 210.019531 190.726562 209.402344 190.847656 208.792969 C 190.96875 208.179688 191.121094 207.574219 191.304688 206.976562 C 191.484375 206.382812 191.695312 205.796875 191.933594 205.21875 C 192.171875 204.644531 192.4375 204.078125 192.730469 203.53125 C 193.027344 202.980469 193.34375 202.445312 193.691406 201.925781 C 194.039062 201.40625 194.410156 200.90625 194.804688 200.425781 C 195.199219 199.945312 195.621094 199.480469 196.058594 199.039062 C 196.5 198.601562 196.964844 198.179688 197.445312 197.785156 C 197.925781 197.390625 198.425781 197.019531 198.945312 196.671875 C 199.464844 196.324219 200 196.003906 200.550781 195.710938 C 201.097656 195.417969 201.664062 195.152344 202.238281 194.914062 C 202.816406 194.675781 203.402344 194.464844 204 194.28125 C 204.59375 194.101562 205.199219 193.949219 205.8125 193.828125 C 206.421875 193.707031 207.039062 193.617188 207.660156 193.554688 C 208.28125 193.492188 208.902344 193.464844 209.527344 193.464844 L 237.011719 193.464844 C 244.4375 193.464844 268.75 192.511719 268.75 180.070312 C 268.441406 177.636719 267.777344 175.308594 266.761719 173.078125 C 265.742188 170.847656 264.417969 168.820312 262.785156 166.992188 C 261.640625 165.40625 260.5 163.753906 259.484375 162.042969 C 258.039062 159.730469 257.320312 157.210938 257.324219 154.488281 C 257.394531 153.558594 257.546875 152.648438 257.785156 151.75 C 258.027344 150.851562 258.347656 149.980469 258.753906 149.144531 C 259.15625 148.304688 259.636719 147.515625 260.1875 146.765625 C 260.742188 146.019531 261.359375 145.328125 262.042969 144.699219 C 262.726562 144.066406 263.464844 143.507812 264.253906 143.015625 C 265.042969 142.523438 265.871094 142.109375 266.738281 141.773438 C 267.605469 141.4375 268.496094 141.1875 269.410156 141.019531 C 270.324219 140.851562 271.25 140.769531 272.179688 140.777344 L 273.066406 140.777344 C 273.976562 140.820312 274.871094 140.945312 275.757812 141.152344 C 276.644531 141.359375 277.503906 141.648438 278.335938 142.015625 C 279.167969 142.382812 279.957031 142.824219 280.707031 143.339844 C 281.457031 143.851562 282.15625 144.429688 282.796875 145.074219 C 283.441406 145.71875 284.019531 146.414062 284.535156 147.164062 C 285.046875 147.914062 285.488281 148.707031 285.855469 149.539062 C 286.222656 150.371094 286.511719 151.230469 286.71875 152.113281 C 286.929688 153 287.054688 153.898438 287.097656 154.804688 C 287.09375 157.398438 286.394531 159.789062 285 161.976562 C 284.175781 163.375 283.160156 164.835938 282.207031 166.230469 C 280.5 168.191406 279.105469 170.355469 278.027344 172.722656 C 276.945312 175.085938 276.222656 177.558594 275.859375 180.132812 C 275.859375 192.195312 298.078125 193.527344 307.597656 193.527344 L 328.863281 193.527344 C 329.488281 193.527344 330.109375 193.558594 330.730469 193.617188 C 331.351562 193.679688 331.96875 193.769531 332.578125 193.890625 C 333.191406 194.015625 333.796875 194.164062 334.390625 194.347656 C 334.988281 194.527344 335.574219 194.738281 336.152344 194.976562 C 336.726562 195.214844 337.292969 195.480469 337.839844 195.773438 C 338.390625 196.070312 338.925781 196.390625 339.445312 196.734375 C 339.960938 197.082031 340.464844 197.453125 340.945312 197.847656 C 341.425781 198.246094 341.890625 198.664062 342.328125 199.105469 C 342.769531 199.546875 343.1875 200.007812 343.585938 200.488281 C 343.980469 200.972656 344.351562 201.472656 344.699219 201.988281 C 345.042969 202.507812 345.363281 203.042969 345.660156 203.59375 C 345.953125 204.144531 346.21875 204.707031 346.457031 205.28125 C 346.695312 205.859375 346.90625 206.445312 347.085938 207.042969 C 347.269531 207.640625 347.417969 208.242188 347.542969 208.855469 C 347.664062 209.464844 347.753906 210.082031 347.816406 210.703125 C 347.875 211.324219 347.90625 211.945312 347.90625 212.570312 L 347.90625 237.074219 Z M 348.480469 308.039062 " fill-opacity="1" fill-rule="nonzero"/><g clip-path="url(#16d56051c2)"><path fill="#3cacae" d="M 313.375 23.089844 L 334.640625 23.089844 C 335.265625 23.089844 335.886719 23.121094 336.507812 23.179688 C 337.128906 23.242188 337.742188 23.332031 338.355469 23.453125 C 338.96875 23.578125 339.570312 23.726562 340.167969 23.910156 C 340.765625 24.089844 341.351562 24.300781 341.929688 24.539062 C 342.503906 24.777344 343.066406 25.042969 343.617188 25.335938 C 344.167969 25.632812 344.703125 25.953125 345.21875 26.296875 C 345.738281 26.644531 346.238281 27.015625 346.722656 27.410156 C 347.203125 27.808594 347.664062 28.226562 348.105469 28.667969 C 348.546875 29.109375 348.964844 29.570312 349.359375 30.050781 C 349.757812 30.535156 350.128906 31.035156 350.472656 31.550781 C 350.820312 32.070312 351.140625 32.605469 351.433594 33.15625 C 351.730469 33.707031 351.996094 34.269531 352.234375 34.84375 C 352.472656 35.421875 352.683594 36.007812 352.863281 36.605469 C 353.042969 37.203125 353.195312 37.804688 353.316406 38.417969 C 353.441406 39.027344 353.53125 39.644531 353.59375 40.265625 C 353.652344 40.886719 353.683594 41.507812 353.683594 42.132812 L 353.683594 66.699219 L 354.128906 137.667969 L 354.128906 162.042969 C 354.128906 162.664062 354.097656 163.289062 354.035156 163.910156 C 353.976562 164.527344 353.882812 165.144531 353.761719 165.757812 C 353.640625 166.367188 353.488281 166.972656 353.308594 167.570312 C 353.128906 168.167969 352.917969 168.753906 352.679688 169.328125 C 352.441406 169.90625 352.171875 170.46875 351.878906 171.019531 C 351.585938 171.570312 351.265625 172.101562 350.917969 172.621094 C 350.574219 173.140625 350.203125 173.640625 349.804688 174.121094 C 349.410156 174.605469 348.992188 175.066406 348.550781 175.507812 C 348.109375 175.949219 347.648438 176.367188 347.164062 176.761719 C 346.683594 177.15625 346.183594 177.527344 345.664062 177.875 C 345.144531 178.222656 344.613281 178.542969 344.0625 178.835938 C 343.511719 179.128906 342.949219 179.398438 342.371094 179.636719 C 341.796875 179.875 341.210938 180.082031 340.613281 180.265625 C 340.015625 180.445312 339.410156 180.597656 338.800781 180.71875 C 338.1875 180.839844 337.570312 180.933594 336.953125 180.992188 C 336.332031 181.054688 335.707031 181.085938 335.085938 181.085938 L 310.265625 181.085938 C 304.003906 181.253906 297.886719 180.386719 291.921875 178.480469 C 292.808594 176.832031 294.332031 174.671875 295.347656 173.148438 C 296.363281 171.625 297.507812 169.976562 298.457031 168.453125 C 299.070312 167.429688 299.613281 166.371094 300.082031 165.277344 C 300.550781 164.179688 300.949219 163.058594 301.269531 161.910156 C 301.589844 160.761719 301.832031 159.597656 301.996094 158.417969 C 302.160156 157.234375 302.242188 156.050781 302.25 154.859375 C 302.253906 153.664062 302.179688 152.480469 302.027344 151.296875 C 301.875 150.113281 301.644531 148.949219 301.335938 147.796875 C 301.023438 146.644531 300.640625 145.519531 300.179688 144.421875 C 299.722656 143.320312 299.191406 142.257812 298.585938 141.226562 C 297.984375 140.199219 297.316406 139.214844 296.582031 138.277344 C 295.847656 137.335938 295.054688 136.449219 294.203125 135.617188 C 293.351562 134.785156 292.445312 134.011719 291.488281 133.300781 C 290.535156 132.585938 289.535156 131.941406 288.492188 131.363281 C 287.449219 130.785156 286.375 130.277344 285.265625 129.84375 C 284.152344 129.410156 283.019531 129.050781 281.863281 128.769531 C 280.703125 128.488281 279.53125 128.28125 278.347656 128.15625 C 277.160156 128.03125 275.972656 127.984375 274.78125 128.019531 L 273.257812 128.019531 C 272.089844 128.035156 270.929688 128.128906 269.777344 128.300781 C 268.625 128.46875 267.488281 128.714844 266.367188 129.039062 C 265.246094 129.359375 264.148438 129.75 263.078125 130.21875 C 262.011719 130.683594 260.976562 131.21875 259.976562 131.820312 C 258.980469 132.421875 258.023438 133.089844 257.113281 133.816406 C 256.203125 134.546875 255.34375 135.332031 254.539062 136.171875 C 253.730469 137.015625 252.984375 137.90625 252.292969 138.847656 C 251.605469 139.789062 250.980469 140.769531 250.421875 141.792969 C 249.863281 142.816406 249.375 143.875 248.953125 144.960938 C 248.535156 146.050781 248.1875 147.160156 247.914062 148.292969 C 247.644531 149.429688 247.445312 150.574219 247.324219 151.734375 C 247.203125 152.894531 247.160156 154.058594 247.191406 155.222656 C 247.226562 156.390625 247.335938 157.546875 247.519531 158.699219 C 247.707031 159.851562 247.964844 160.984375 248.300781 162.101562 C 248.636719 163.21875 249.046875 164.308594 249.523438 165.371094 C 250.003906 166.433594 250.550781 167.460938 251.167969 168.453125 C 252.121094 170.039062 253.199219 171.625 254.277344 173.214844 C 255.355469 174.800781 256.753906 176.894531 257.640625 178.546875 C 251.675781 180.453125 245.558594 181.320312 239.296875 181.148438 L 215.046875 181.148438 C 214.425781 181.148438 213.804688 181.117188 213.183594 181.058594 C 212.5625 180.996094 211.945312 180.902344 211.332031 180.78125 C 210.722656 180.660156 210.117188 180.507812 209.519531 180.328125 C 208.925781 180.148438 208.335938 179.9375 207.761719 179.699219 C 207.183594 179.460938 206.621094 179.195312 206.070312 178.898438 C 205.523438 178.605469 204.988281 178.285156 204.46875 177.9375 C 203.949219 177.59375 203.449219 177.222656 202.96875 176.824219 C 202.484375 176.429688 202.023438 176.011719 201.582031 175.570312 C 201.140625 175.128906 200.722656 174.667969 200.328125 174.1875 C 199.933594 173.703125 199.5625 173.203125 199.214844 172.683594 C 198.867188 172.167969 198.546875 171.632812 198.253906 171.082031 C 197.960938 170.53125 197.695312 169.96875 197.453125 169.394531 C 197.214844 168.816406 197.007812 168.230469 196.824219 167.632812 C 196.644531 167.035156 196.492188 166.433594 196.371094 165.820312 C 196.25 165.207031 196.15625 164.59375 196.097656 163.972656 C 196.035156 163.351562 196.003906 162.730469 196.003906 162.105469 L 196.003906 137.347656 C 196.003906 125.480469 194.417969 105.609375 183.628906 105.609375 C 181.355469 105.902344 179.179688 106.535156 177.097656 107.496094 C 175.019531 108.460938 173.132812 109.714844 171.441406 111.257812 C 169.851562 112.402344 168.203125 113.542969 166.550781 114.558594 C 164.207031 115.972656 161.667969 116.691406 158.933594 116.71875 L 158.046875 116.71875 C 157.070312 116.75 156.101562 116.683594 155.140625 116.523438 C 154.175781 116.363281 153.238281 116.113281 152.328125 115.769531 C 151.414062 115.421875 150.542969 114.992188 149.714844 114.476562 C 148.886719 113.960938 148.117188 113.371094 147.40625 112.703125 C 146.695312 112.035156 146.058594 111.304688 145.488281 110.511719 C 144.921875 109.71875 144.4375 108.875 144.035156 107.988281 C 143.632812 107.097656 143.320312 106.179688 143.101562 105.226562 C 142.878906 104.277344 142.753906 103.316406 142.722656 102.339844 C 142.691406 101.367188 142.757812 100.398438 142.914062 99.433594 C 143.074219 98.472656 143.328125 97.535156 143.671875 96.621094 C 144.015625 95.710938 144.445312 94.839844 144.960938 94.011719 C 145.476562 93.183594 146.066406 92.414062 146.734375 91.699219 C 147.402344 90.988281 148.132812 90.347656 148.925781 89.78125 C 149.71875 89.214844 150.558594 88.726562 151.449219 88.324219 C 152.335938 87.921875 153.253906 87.613281 154.207031 87.390625 C 155.15625 87.167969 156.117188 87.042969 157.09375 87.011719 L 158.871094 87.011719 C 161.648438 87.046875 164.207031 87.808594 166.550781 89.296875 C 168.265625 90.375 169.851562 91.519531 171.375 92.597656 C 173.09375 94.175781 175.011719 95.460938 177.121094 96.457031 C 179.230469 97.453125 181.441406 98.113281 183.753906 98.4375 C 193.972656 98.4375 196.132812 81.171875 196.132812 66.699219 L 196.132812 42.132812 C 196.132812 41.507812 196.164062 40.886719 196.222656 40.265625 C 196.285156 39.644531 196.375 39.027344 196.5 38.417969 C 196.621094 37.804688 196.769531 37.203125 196.953125 36.605469 C 197.132812 36.007812 197.34375 35.421875 197.582031 34.84375 C 197.820312 34.269531 198.085938 33.707031 198.382812 33.15625 C 198.675781 32.605469 198.996094 32.070312 199.339844 31.550781 C 199.6875 31.035156 200.058594 30.535156 200.453125 30.050781 C 200.851562 29.570312 201.269531 29.109375 201.710938 28.667969 C 202.152344 28.226562 202.613281 27.808594 203.09375 27.410156 C 203.578125 27.015625 204.078125 26.644531 204.597656 26.296875 C 205.113281 25.953125 205.648438 25.632812 206.199219 25.335938 C 206.75 25.042969 207.3125 24.777344 207.886719 24.539062 C 208.464844 24.300781 209.050781 24.089844 209.648438 23.910156 C 210.246094 23.726562 210.847656 23.578125 211.460938 23.453125 C 212.070312 23.332031 212.6875 23.242188 213.308594 23.179688 C 213.929688 23.121094 214.550781 23.089844 215.175781 23.089844 Z M 313.375 23.089844 " fill-opacity="1" fill-rule="nonzero"/></g><g clip-path="url(#487ab69004)"><path fill="#3cacae" d="M 20.871094 237.898438 L 20.871094 213.523438 C 20.871094 212.898438 20.902344 212.277344 20.960938 211.65625 C 21.023438 211.035156 21.113281 210.417969 21.234375 209.808594 C 21.359375 209.195312 21.507812 208.589844 21.691406 207.992188 C 21.871094 207.398438 22.082031 206.8125 22.320312 206.234375 C 22.558594 205.660156 22.824219 205.09375 23.117188 204.546875 C 23.414062 203.996094 23.734375 203.460938 24.078125 202.941406 C 24.425781 202.421875 24.796875 201.921875 25.191406 201.441406 C 25.589844 200.960938 26.007812 200.496094 26.449219 200.054688 C 26.890625 199.617188 27.351562 199.195312 27.832031 198.800781 C 28.316406 198.40625 28.816406 198.035156 29.332031 197.6875 C 29.851562 197.339844 30.386719 197.019531 30.9375 196.726562 C 31.488281 196.433594 32.050781 196.167969 32.625 195.929688 C 33.203125 195.691406 33.789062 195.480469 34.386719 195.296875 C 34.984375 195.117188 35.585938 194.964844 36.199219 194.84375 C 36.808594 194.722656 37.425781 194.632812 38.046875 194.570312 C 38.667969 194.507812 39.289062 194.480469 39.914062 194.480469 L 67.527344 194.480469 C 74.953125 194.480469 99.265625 193.464844 99.265625 181.085938 C 98.949219 178.644531 98.285156 176.304688 97.269531 174.066406 C 96.25 171.828125 94.929688 169.785156 93.296875 167.945312 C 92.15625 166.359375 90.949219 164.707031 89.996094 163.058594 C 88.554688 160.746094 87.835938 158.226562 87.839844 155.503906 C 87.902344 154.574219 88.054688 153.65625 88.292969 152.753906 C 88.527344 151.851562 88.847656 150.980469 89.25 150.140625 C 89.652344 149.300781 90.128906 148.503906 90.683594 147.75 C 91.234375 147 91.855469 146.308594 92.539062 145.675781 C 93.222656 145.039062 93.957031 144.476562 94.75 143.980469 C 95.539062 143.484375 96.371094 143.070312 97.238281 142.730469 C 98.109375 142.394531 99 142.140625 99.917969 141.972656 C 100.835938 141.804688 101.761719 141.722656 102.691406 141.730469 L 103.390625 141.730469 C 104.300781 141.777344 105.199219 141.910156 106.085938 142.125 C 106.972656 142.335938 107.832031 142.628906 108.664062 143 C 109.5 143.371094 110.289062 143.816406 111.042969 144.332031 C 111.792969 144.851562 112.492188 145.429688 113.136719 146.078125 C 113.78125 146.722656 114.363281 147.417969 114.878906 148.171875 C 115.394531 148.921875 115.839844 149.714844 116.210938 150.546875 C 116.582031 151.378906 116.875 152.238281 117.089844 153.125 C 117.304688 154.011719 117.433594 154.910156 117.484375 155.820312 C 117.464844 158.308594 116.808594 160.613281 115.515625 162.738281 C 114.691406 164.136719 113.675781 165.53125 112.722656 166.992188 C 111.003906 168.949219 109.605469 171.109375 108.523438 173.476562 C 107.441406 175.84375 106.726562 178.316406 106.375 180.894531 C 106.375 192.957031 128.527344 194.289062 138.113281 194.289062 L 159.378906 194.289062 C 160.003906 194.289062 160.625 194.320312 161.246094 194.378906 C 161.867188 194.441406 162.480469 194.53125 163.09375 194.652344 C 163.707031 194.777344 164.308594 194.925781 164.90625 195.109375 C 165.503906 195.289062 166.089844 195.5 166.667969 195.738281 C 167.242188 195.976562 167.804688 196.242188 168.355469 196.535156 C 168.90625 196.832031 169.441406 197.152344 169.957031 197.496094 C 170.476562 197.84375 170.976562 198.214844 171.460938 198.609375 C 171.941406 199.007812 172.402344 199.425781 172.84375 199.867188 C 173.285156 200.308594 173.703125 200.769531 174.097656 201.25 C 174.496094 201.734375 174.867188 202.234375 175.210938 202.75 C 175.558594 203.269531 175.878906 203.804688 176.171875 204.355469 C 176.46875 204.90625 176.734375 205.46875 176.972656 206.042969 C 177.210938 206.621094 177.421875 207.207031 177.601562 207.804688 C 177.78125 208.402344 177.933594 209.003906 178.054688 209.617188 C 178.179688 210.226562 178.269531 210.84375 178.332031 211.464844 C 178.390625 212.085938 178.421875 212.707031 178.421875 213.332031 L 178.421875 237.835938 C 178.523438 243.847656 177.847656 249.773438 176.390625 255.609375 L 173.597656 253.640625 C 171.695312 252.308594 169.726562 250.847656 167.628906 249.640625 C 165.519531 248.386719 163.277344 247.433594 160.90625 246.785156 C 158.535156 246.140625 156.121094 245.824219 153.664062 245.832031 C 152.792969 245.839844 151.921875 245.886719 151.054688 245.976562 C 150.1875 246.066406 149.324219 246.199219 148.46875 246.367188 C 147.613281 246.539062 146.769531 246.753906 145.933594 247.003906 C 145.097656 247.253906 144.277344 247.546875 143.46875 247.875 C 142.664062 248.207031 141.871094 248.574219 141.097656 248.980469 C 140.328125 249.382812 139.574219 249.824219 138.84375 250.300781 C 138.113281 250.777344 137.40625 251.285156 136.722656 251.832031 C 136.042969 252.375 135.386719 252.949219 134.757812 253.554688 C 134.128906 254.160156 133.53125 254.792969 132.964844 255.457031 C 132.398438 256.121094 131.863281 256.808594 131.359375 257.519531 C 130.859375 258.234375 130.390625 258.96875 129.957031 259.726562 C 129.527344 260.484375 129.128906 261.261719 128.773438 262.058594 C 128.414062 262.851562 128.09375 263.664062 127.8125 264.488281 C 127.53125 265.3125 127.289062 266.152344 127.085938 267 C 126.882812 267.847656 126.722656 268.707031 126.601562 269.570312 C 126.480469 270.433594 126.402344 271.300781 126.363281 272.171875 C 126.324219 273.042969 126.328125 273.914062 126.371094 274.789062 C 126.417969 275.660156 126.503906 276.527344 126.628906 277.390625 C 126.757812 278.253906 126.925781 279.105469 127.132812 279.953125 C 127.339844 280.800781 127.589844 281.636719 127.875 282.460938 C 128.164062 283.285156 128.488281 284.09375 128.855469 284.886719 C 129.21875 285.679688 129.621094 286.453125 130.058594 287.207031 C 130.496094 287.960938 130.96875 288.695312 131.476562 289.402344 C 131.984375 290.113281 132.523438 290.796875 133.09375 291.457031 C 133.667969 292.113281 134.269531 292.742188 134.902344 293.34375 C 135.535156 293.945312 136.195312 294.515625 136.878906 295.054688 C 137.566406 295.59375 138.277344 296.097656 139.011719 296.570312 C 139.746094 297.039062 140.5 297.476562 141.277344 297.875 C 142.050781 298.273438 142.84375 298.636719 143.65625 298.960938 C 144.464844 299.285156 145.289062 299.570312 146.125 299.8125 C 146.960938 300.058594 147.808594 300.265625 148.664062 300.429688 C 149.523438 300.597656 150.386719 300.71875 151.253906 300.804688 L 154.171875 300.804688 C 156.660156 300.792969 159.101562 300.449219 161.492188 299.769531 C 163.886719 299.089844 166.144531 298.101562 168.265625 296.804688 C 170.105469 295.726562 171.949219 294.394531 173.726562 293.125 L 176.960938 290.964844 C 178.417969 296.800781 179.097656 302.726562 178.992188 308.738281 L 178.675781 333.113281 C 178.675781 333.738281 178.644531 334.359375 178.585938 334.980469 C 178.523438 335.601562 178.433594 336.21875 178.308594 336.828125 C 178.1875 337.441406 178.035156 338.046875 177.855469 338.640625 C 177.675781 339.238281 177.464844 339.824219 177.226562 340.402344 C 176.988281 340.976562 176.722656 341.539062 176.425781 342.089844 C 176.132812 342.640625 175.8125 343.175781 175.464844 343.695312 C 175.121094 344.210938 174.75 344.710938 174.351562 345.195312 C 173.957031 345.675781 173.539062 346.136719 173.097656 346.578125 C 172.65625 347.019531 172.195312 347.4375 171.714844 347.835938 C 171.230469 348.230469 170.730469 348.601562 170.210938 348.949219 C 169.695312 349.292969 169.160156 349.613281 168.609375 349.910156 C 168.058594 350.203125 167.496094 350.46875 166.921875 350.707031 C 166.34375 350.945312 165.757812 351.15625 165.160156 351.335938 C 164.5625 351.519531 163.960938 351.667969 163.347656 351.792969 C 162.734375 351.914062 162.121094 352.003906 161.5 352.066406 C 160.878906 352.125 160.257812 352.15625 159.632812 352.15625 L 39.914062 352.15625 C 39.289062 352.15625 38.667969 352.125 38.046875 352.066406 C 37.425781 352.003906 36.808594 351.914062 36.199219 351.792969 C 35.585938 351.667969 34.984375 351.519531 34.386719 351.335938 C 33.789062 351.15625 33.203125 350.945312 32.625 350.707031 C 32.050781 350.46875 31.488281 350.203125 30.9375 349.910156 C 30.386719 349.613281 29.851562 349.292969 29.332031 348.949219 C 28.816406 348.601562 28.316406 348.230469 27.832031 347.835938 C 27.351562 347.4375 26.890625 347.019531 26.449219 346.578125 C 26.007812 346.136719 25.589844 345.675781 25.191406 345.195312 C 24.796875 344.710938 24.425781 344.210938 24.078125 343.695312 C 23.734375 343.175781 23.414062 342.640625 23.117188 342.089844 C 22.824219 341.539062 22.558594 340.976562 22.320312 340.402344 C 22.082031 339.824219 21.871094 339.238281 21.691406 338.640625 C 21.507812 338.046875 21.359375 337.441406 21.234375 336.828125 C 21.113281 336.21875 21.023438 335.601562 20.960938 334.980469 C 20.902344 334.359375 20.871094 333.738281 20.871094 333.113281 Z M 20.871094 237.898438 " fill-opacity="1" fill-rule="nonzero"/></g></svg>