<svg xmlns="http://www.w3.org/2000/svg" xmlns:xlink="http://www.w3.org/1999/xlink" width="500" zoomAndPan="magnify" viewBox="0 0 375 374.999991" height="500" preserveAspectRatio="xMidYMid meet" version="1.0"><defs><clipPath id="88748abef7"><path d="M 41.328125 19.488281 L 333.828125 19.488281 L 333.828125 355.488281 L 41.328125 355.488281 Z M 41.328125 19.488281 " clip-rule="nonzero"/></clipPath></defs><g clip-path="url(#88748abef7)"><path fill="#3cacae" d="M 41.53125 59.75 C 82.34375 56.503906 117.890625 38.664062 144.757812 19.488281 L 230.300781 19.488281 C 257.171875 38.664062 292.71875 56.503906 333.53125 59.75 L 333.53125 187.3125 C 333.53125 269.617188 249.972656 338.78125 187.53125 355.511719 C 125.09375 338.78125 41.53125 269.617188 41.53125 187.3125 Z M 133.769531 173.5 L 164.003906 211.773438 C 166.914062 215.457031 172.257812 216.082031 175.941406 213.175781 C 176.203125 212.96875 176.453125 212.746094 176.683594 212.515625 L 176.710938 212.539062 L 240.660156 148.589844 C 243.992188 145.257812 243.992188 139.851562 240.660156 136.519531 C 237.324219 133.183594 231.921875 133.183594 228.585938 136.519531 L 171.394531 193.710938 L 147.109375 162.964844 C 144.199219 159.28125 138.851562 158.652344 135.167969 161.5625 C 131.488281 164.472656 130.859375 169.820312 133.769531 173.5 Z M 187.53125 87.945312 C 139.710938 87.945312 100.945312 126.710938 100.945312 174.527344 C 100.945312 222.347656 139.710938 261.113281 187.53125 261.113281 C 235.351562 261.113281 274.117188 222.347656 274.117188 174.527344 C 274.117188 126.710938 235.351562 87.945312 187.53125 87.945312 Z M 187.53125 87.945312 " fill-opacity="1" fill-rule="evenodd"/></g></svg>