<svg xmlns="http://www.w3.org/2000/svg" xmlns:xlink="http://www.w3.org/1999/xlink" width="500" zoomAndPan="magnify" viewBox="0 0 375 374.999991" height="500" preserveAspectRatio="xMidYMid meet" version="1.0"><path fill="#3cacae" d="M 288.90625 221.703125 L 288.90625 197.402344 C 288.90625 187.433594 280.75 179.277344 270.78125 179.277344 C 260.8125 179.277344 252.65625 187.433594 252.65625 197.402344 L 252.65625 181.640625 C 252.65625 171.675781 244.5 163.515625 234.53125 163.515625 C 224.5625 163.515625 216.40625 171.671875 216.40625 181.640625 L 216.40625 165.882812 C 216.40625 155.914062 208.25 147.757812 198.28125 147.757812 C 188.3125 147.757812 180.152344 155.910156 180.152344 165.882812 L 180.152344 85.503906 C 180.152344 75.535156 172 67.378906 162.027344 67.378906 C 152.0625 67.378906 143.902344 75.535156 143.902344 85.503906 L 143.902344 264.941406 L 127.078125 235.796875 C 121.445312 226.039062 108.851562 222.664062 99.089844 228.296875 C 89.332031 233.933594 85.957031 246.527344 91.589844 256.285156 L 126.316406 316.394531 C 140.414062 340.238281 169.589844 356.714844 203.117188 356.714844 C 250.300781 356.714844 288.902344 324.09375 288.902344 284.21875 L 288.902344 221.703125 Z M 288.90625 221.703125 " fill-opacity="1" fill-rule="nonzero"/><path fill="#3cacae" d="M 128.820312 73.417969 C 135.488281 55.101562 155.808594 45.628906 174.121094 52.292969 C 192.4375 58.960938 201.910156 79.28125 195.246094 97.59375 C 193.226562 103.136719 189.953125 107.863281 185.867188 111.585938 L 185.863281 119.371094 C 192.558594 114.667969 197.941406 107.945312 200.949219 99.671875 C 208.773438 78.175781 197.691406 54.410156 176.195312 46.585938 C 154.703125 38.761719 130.9375 49.84375 123.113281 71.339844 C 116.570312 89.316406 123.257812 108.875 138.191406 119.375 L 138.191406 111.589844 C 127.960938 102.214844 123.789062 87.246094 128.820312 73.417969 Z M 128.820312 73.417969 " fill-opacity="1" fill-rule="nonzero"/><path fill="#3cacae" d="M 107.820312 65.773438 C 118.699219 35.878906 151.871094 20.410156 181.765625 31.292969 C 211.65625 42.171875 227.125 75.34375 216.246094 105.238281 C 210.734375 120.382812 199.492188 131.816406 185.859375 138.003906 L 185.859375 147.335938 C 203.101562 140.683594 217.484375 126.898438 224.300781 108.167969 C 236.820312 73.777344 219.085938 35.753906 184.695312 23.234375 C 150.304688 10.71875 112.28125 28.449219 99.761719 62.839844 C 87.390625 96.835938 104.578125 134.382812 138.191406 147.328125 L 138.191406 138.023438 C 111.023438 125.710938 97.449219 94.261719 107.820312 65.773438 Z M 107.820312 65.773438 " fill-opacity="1" fill-rule="nonzero"/></svg>