<svg aria-hidden="true" viewBox="0 0 16 16" fill="none" xmlns="http://www.w3.org/2000/svg">
    <path fill="currentColor"
          d="M3.99954 3.20039C3.99954 2.98822 3.91525 2.78473 3.76522 2.63471C3.6152 2.48468 3.41171 2.40039 3.19954 2.40039C2.98737 2.40039 2.78388 2.48468 2.63385 2.63471C2.48382 2.78473 2.39954 2.98822 2.39954 3.20039V9.01479C2.15633 9.15523 1.95436 9.3572 1.81395 9.60043C1.67353 9.84365 1.59961 10.1195 1.59961 10.4004C1.59961 10.6812 1.67353 10.9571 1.81395 11.2004C1.95436 11.4436 2.15633 11.6456 2.39954 11.786V12.8004C2.39954 13.0126 2.48382 13.216 2.63385 13.3661C2.78388 13.5161 2.98737 13.6004 3.19954 13.6004C3.41171 13.6004 3.6152 13.5161 3.76522 13.3661C3.91525 13.216 3.99954 13.0126 3.99954 12.8004V11.786C4.24275 11.6456 4.44471 11.4436 4.58513 11.2004C4.72555 10.9571 4.79947 10.6812 4.79947 10.4004C4.79947 10.1195 4.72555 9.84365 4.58513 9.60043C4.44471 9.3572 4.24275 9.15523 3.99954 9.01479V3.20039ZM8.79954 3.20039C8.79954 2.98822 8.71525 2.78473 8.56522 2.63471C8.4152 2.48468 8.21171 2.40039 7.99954 2.40039C7.78737 2.40039 7.58388 2.48468 7.43385 2.63471C7.28382 2.78473 7.19954 2.98822 7.19954 3.20039V4.21479C6.95633 4.35523 6.75437 4.5572 6.61395 4.80043C6.47353 5.04365 6.39961 5.31955 6.39961 5.60039C6.39961 5.88124 6.47353 6.15713 6.61395 6.40036C6.75437 6.64358 6.95633 6.84556 7.19954 6.98599V12.8004C7.19954 13.0126 7.28382 13.216 7.43385 13.3661C7.58388 13.5161 7.78737 13.6004 7.99954 13.6004C8.21171 13.6004 8.4152 13.5161 8.56522 13.3661C8.71525 13.216 8.79954 13.0126 8.79954 12.8004V6.98599C9.04275 6.84556 9.24471 6.64358 9.38513 6.40036C9.52555 6.15713 9.59947 5.88124 9.59947 5.60039C9.59947 5.31955 9.52555 5.04365 9.38513 4.80043C9.24471 4.5572 9.04275 4.35523 8.79954 4.21479V3.20039ZM12.7995 2.40039C13.0117 2.40039 13.2152 2.48468 13.3652 2.63471C13.5153 2.78473 13.5995 2.98822 13.5995 3.20039V9.01479C13.8428 9.15523 14.0447 9.3572 14.1851 9.60043C14.3255 9.84365 14.3995 10.1195 14.3995 10.4004C14.3995 10.6812 14.3255 10.9571 14.1851 11.2004C14.0447 11.4436 13.8428 11.6456 13.5995 11.786V12.8004C13.5995 13.0126 13.5153 13.216 13.3652 13.3661C13.2152 13.5161 13.0117 13.6004 12.7995 13.6004C12.5874 13.6004 12.3839 13.5161 12.2339 13.3661C12.0838 13.216 11.9995 13.0126 11.9995 12.8004V11.786C11.7563 11.6456 11.5544 11.4436 11.4139 11.2004C11.2735 10.9571 11.1996 10.6812 11.1996 10.4004C11.1996 10.1195 11.2735 9.84365 11.4139 9.60043C11.5544 9.3572 11.7563 9.15523 11.9995 9.01479V3.20039C11.9995 2.98822 12.0838 2.78473 12.2339 2.63471C12.3839 2.48468 12.5874 2.40039 12.7995 2.40039V2.40039Z"
    />
</svg>
