<svg
    xmlns="http://www.w3.org/2000/svg"
    viewBox="0 0 17 17"
    fill="none">
    <path d="M14.1238 5.44008L14.1026 5.37633C14.0712 5.29818 14.0228 5.22801 13.9609 5.17091L10.4193 1.62924C10.3555 1.56549 10.2847 1.52299 10.2138 1.48758L10.1501 1.46633C10.0911 1.44438 10.0289 1.43241 9.96592 1.43091C9.95176 1.43091 9.93759 1.42383 9.92342 1.42383H4.24967C3.47051 1.42383 2.83301 2.06133 2.83301 2.84049V14.1738C2.83301 14.953 3.47051 15.5905 4.24967 15.5905H12.7497C13.5288 15.5905 14.1663 14.953 14.1663 14.1738V5.67383C14.1663 5.67383 14.1593 5.64549 14.1593 5.63133C14.1593 5.56758 14.1451 5.51091 14.1238 5.44716V5.44008ZM4.24967 14.1667V2.83341H9.20801V5.66674C9.20801 6.05633 9.52676 6.37508 9.91634 6.37508H12.7497V14.1667H4.24967Z"
          fill="#697282"/>
</svg>
