<svg aria-hidden="true" viewBox="0 0 18 19" fill="none" xmlns="http://www.w3.org/2000/svg">
    <g clip-path="url(#clip0_3450_2254)">
        <path stroke="#6B7280"
              stroke-width="2"
              stroke-linecap="round"
              stroke-linejoin="round"
              d="M16.5 8.81039V9.50039C16.4991 11.1177 15.9754 12.6914 15.007 13.9868C14.0386 15.2821 12.6775 16.2297 11.1265 16.6883C9.57557 17.1469 7.91794 17.0918 6.40085 16.5313C4.88376 15.9708 3.58849 14.935 2.70822 13.5782C1.82795 12.2214 1.40984 10.6164 1.51626 9.00262C1.62267 7.38881 2.24791 5.85263 3.29871 4.62319C4.34951 3.39375 5.76959 2.53692 7.34714 2.1805C8.92469 1.82407 10.5752 1.98714 12.0525 2.64539M16.5 3.50039L9 11.0079L6.75 8.75789"
        />
    </g>
    <defs>
        <clipPath id="clip0_3450_2254">
            <rect width="18" height="18" fill="white" transform="translate(0 0.5)"/>
        </clipPath>
    </defs>
</svg>
