<svg aria-hidden="true" viewBox="0 0 16 17" fill="none" xmlns="http://www.w3.org/2000/svg">
    <path fill="#6B7280"
          stroke="#6B7280"
          d="M4.27051 6.33398C4.33135 6.33451 4.39074 6.3469 4.44531 6.36914C4.49991 6.39143 4.54815 6.42283 4.58691 6.46094L4.59277 6.4668L7.66699 9.38867L8.01074 9.71582L8.35547 9.38867L11.4229 6.47266C11.5031 6.39914 11.616 6.35447 11.7373 6.35547C11.8586 6.35655 11.9703 6.40292 12.0488 6.47754C12.1265 6.55136 12.165 6.64622 12.166 6.73926C12.1669 6.83184 12.1299 6.92626 12.0547 7.00098L8.32617 10.5449C8.24666 10.6205 8.13357 10.666 8.01074 10.666C7.88805 10.6659 7.77472 10.6204 7.69531 10.5449L3.96289 6.99707L3.95605 6.99121L3.90234 6.93164C3.88703 6.91056 3.87456 6.88803 3.86426 6.86523C3.84379 6.81993 3.8335 6.77217 3.83301 6.72461C3.83257 6.67699 3.84176 6.62858 3.86133 6.58301C3.88102 6.53727 3.91161 6.49365 3.95117 6.45605C3.99065 6.4186 4.03885 6.38762 4.09375 6.36621C4.14896 6.34474 4.2095 6.33348 4.27051 6.33398Z"
    />
</svg>
