<svg xmlns="http://www.w3.org/2000/svg"
    viewBox="0 0 17 17"
    fill="none">
    <path d="M13.8556 4.95768C13.8937 4.7406 13.8837 4.51783 13.8265 4.305C13.7693 4.09217 13.6662 3.89444 13.5245 3.72569C13.3827 3.55694 13.2057 3.42126 13.006 3.32817C12.8062 3.23509 12.5885 3.18685 12.3681 3.18685H4.63028C4.4099 3.18685 4.19218 3.23509 3.99242 3.32817C3.79266 3.42126 3.61569 3.55694 3.47394 3.72569C3.33219 3.89444 3.22909 4.09217 3.17188 4.305C3.11468 4.51783 3.10474 4.7406 3.14278 4.95768M12.395 3.18685C12.4149 3.00268 12.4255 2.91131 12.4255 2.83552C12.4263 2.48538 12.2973 2.14737 12.0636 1.88668C11.8298 1.62599 11.5078 1.4611 11.1597 1.42381C11.0846 1.41602 10.9925 1.41602 10.8084 1.41602H6.19003C6.00587 1.41602 5.91308 1.41602 5.83799 1.42381C5.48985 1.4611 5.16785 1.62599 4.9341 1.88668C4.70036 2.14737 4.57143 2.48538 4.5722 2.83552C4.5722 2.91131 4.58212 3.00339 4.60266 3.18685"
        stroke="#697282"
        stroke-width="1.5"/>
    <path d="M10.625 12.75H6.375"
          stroke="#697282"
          stroke-width="1.5"
          stroke-linecap="round"/>
    <path d="M1.68825 9.76874C1.37162 7.52757 1.21367 6.4077 1.88517 5.68166C2.55667 4.95703 3.75233 4.95703 6.14225 4.95703H10.8569C13.2468 4.95703 14.4425 4.95703 15.114 5.68236C15.7855 6.4077 15.6268 7.52757 15.3109 9.76874L15.012 11.8937C14.7641 13.6504 14.6401 14.5294 14.0047 15.0557C13.3694 15.582 12.4322 15.582 10.5573 15.582H6.44187C4.56762 15.582 3.62979 15.582 2.99442 15.0557C2.35904 14.5294 2.23508 13.6511 1.98717 11.8937L1.68825 9.76874Z"
        stroke="#697282"
        stroke-width="1.5"/>
</svg>
