<svg aria-hidden="true" viewBox="0 0 18 19" fill="none" xmlns="http://www.w3.org/2000/svg">
    <path fill="currentColor"
          d="M12.7561 3.27414L11.6784 4.41234L14.1592 7.03255L15.2361 5.89436C15.399 5.72233 15.5283 5.51809 15.6164 5.2933C15.7046 5.06851 15.75 4.82757 15.75 4.58425C15.75 4.34093 15.7046 4.1 15.6164 3.87521C15.5283 3.65041 15.399 3.44617 15.2361 3.27414C14.9019 2.93769 14.4578 2.75 13.9961 2.75C13.5344 2.75 13.0903 2.93769 12.7561 3.27414Z"
    />
    <path fill="currentColor"
          d="M13.1672 8.08034L10.6864 5.46013L7.37149 8.95844C7.27341 9.06184 7.20652 9.1936 7.17925 9.3371L6.81023 11.3023C6.78752 11.4219 6.79315 11.5457 6.82661 11.6625C6.86007 11.7793 6.92033 11.8855 7.00204 11.9718C7.08374 12.0581 7.18435 12.1218 7.29495 12.1571C7.40554 12.1925 7.52269 12.1984 7.63598 12.1744L9.49655 11.7817C9.63216 11.7528 9.75665 11.6821 9.85435 11.5787L13.1672 8.08034Z"
    />
    <path fill="currentColor"
          d="M7.37149 8.95844C7.27341 9.06184 7.20652 9.1936 7.17925 9.3371L6.81023 11.3023C6.78752 11.4219 6.79315 11.5457 6.82661 11.6625C6.86007 11.7793 6.92033 11.8855 7.00204 11.9718C7.08374 12.0581 7.18435 12.1218 7.29495 12.1571C7.40554 12.1925 7.52269 12.1984 7.63598 12.1744L9.49655 11.7817C9.63216 11.7528 9.75665 11.6821 9.85435 11.5787L13.1672 8.08034L10.6864 5.46013L7.37149 8.95844Z"
    />
    <path fill="currentColor"
          d="M10.5237 12.4442C10.3276 12.6509 10.0782 12.7919 9.80664 12.8495L7.32588 13.3734C7.09942 13.4212 6.86529 13.4092 6.64427 13.3385C6.42325 13.2677 6.22217 13.1405 6.05887 12.968C5.89558 12.7955 5.77511 12.5832 5.70816 12.3497C5.64121 12.1163 5.62985 11.869 5.67508 11.6298L6.17109 9.00958C6.22567 8.72275 6.35916 8.45931 6.55485 8.25226L10.0066 4.60648C9.98739 4.5374 9.97748 4.46581 9.97713 4.39381H3.77031C3.36721 4.39421 2.98073 4.56351 2.6957 4.86457C2.41067 5.16562 2.25037 5.57383 2.25 5.99959V14.6442C2.25037 15.07 2.41067 15.4782 2.6957 15.7792C2.98073 16.0803 3.36721 16.2496 3.77031 16.25H11.9549C12.358 16.2496 12.7444 16.0803 13.0295 15.7792C13.3145 15.4782 13.4748 15.07 13.4752 14.6442V9.32673L10.5237 12.4442Z"
    />
</svg>
