<svg aria-hidden="true" viewBox="0 0 24 25" fill="none" xmlns="http://www.w3.org/2000/svg">
    <path fill="currentColor"
          d="M8.65541 11.9737C7.74412 11.9737 6.85329 11.6959 6.09557 11.1754C5.33786 10.6549 4.74729 9.9151 4.39855 9.04955C4.04981 8.18401 3.95857 7.23159 4.13635 6.31273C4.31414 5.39387 4.75297 4.54985 5.39735 3.88739C6.04174 3.22493 6.86273 2.77379 7.75652 2.59102C8.6503 2.40825 9.57674 2.50205 10.4187 2.86057C11.2606 3.21909 11.9802 3.82623 12.4865 4.6052C12.9928 5.38416 13.263 6.29998 13.263 7.23684C13.2617 8.4927 12.7758 9.69673 11.912 10.5848C11.0482 11.4728 9.87701 11.9723 8.65541 11.9737ZM8.65541 4.60526C8.14914 4.60526 7.65423 4.7596 7.23328 5.04877C6.81233 5.33793 6.48423 5.74892 6.29049 6.22978C6.09675 6.71064 6.04605 7.23976 6.14482 7.75024C6.24359 8.26072 6.48739 8.72962 6.84538 9.09765C7.20337 9.46568 7.65948 9.71632 8.15603 9.81786C8.65257 9.9194 9.16726 9.86728 9.635 9.66811C10.1027 9.46893 10.5025 9.13163 10.7838 8.69887C11.0651 8.26611 11.2152 7.75732 11.2152 7.23684C11.2152 6.53891 10.9455 5.86955 10.4654 5.37604C9.9854 4.88252 9.33431 4.60526 8.65541 4.60526Z"
    />
    <path fill="currentColor"
          d="M7.23116 20.7747L7.30488 20.3947H4.04782V18.2895C4.04782 17.4519 4.37145 16.6487 4.94751 16.0565C5.52357 15.4643 6.30488 15.1316 7.11955 15.1316H9.09467L11.0555 13.1158C10.7704 13.0609 10.4813 13.0309 10.1913 13.0263H7.11955C5.76226 13.028 4.46103 13.583 3.50128 14.5697C2.54153 15.5564 2.00163 16.8941 2 18.2895V21.4474C2 21.7265 2.10788 21.9943 2.2999 22.1917C2.49192 22.3891 2.75235 22.5 3.02391 22.5H7.38474C7.17675 21.9512 7.12352 21.3532 7.23116 20.7747Z"
    />
    <path fill="currentColor"
          d="M10.2425 22.4474C10.0905 22.4476 9.94047 22.413 9.80314 22.3461C9.66581 22.2793 9.54468 22.1819 9.44851 22.061C9.35235 21.94 9.28357 21.7986 9.24716 21.647C9.21075 21.4953 9.20763 21.3373 9.23802 21.1842L9.96295 17.4621C10.0027 17.2583 10.1004 17.0711 10.2435 16.9242L16.7586 10.2253C17.3356 9.63473 18.1167 9.30319 18.9309 9.30319C19.745 9.30319 20.5261 9.63473 21.1031 10.2253C21.6775 10.8185 22 11.6214 22 12.4584C22 13.2954 21.6775 14.0984 21.1031 14.6916L14.5859 21.3895C14.443 21.5366 14.261 21.637 14.0627 21.6779L10.4421 22.4232C10.3764 22.4374 10.3096 22.4455 10.2425 22.4474ZM11.9104 18.1916L11.548 20.0526L13.3582 19.68L19.6553 13.2074C19.7503 13.1096 19.8257 12.9935 19.8772 12.8657C19.9286 12.738 19.955 12.601 19.955 12.4628C19.9549 12.3245 19.9284 12.1876 19.8769 12.0599C19.8254 11.9322 19.7499 11.8162 19.6548 11.7184C19.5596 11.6207 19.4467 11.5432 19.3224 11.4903C19.1982 11.4375 19.065 11.4103 18.9305 11.4103C18.796 11.4104 18.6628 11.4376 18.5386 11.4906C18.4144 11.5436 18.3015 11.6211 18.2064 11.7189L11.9104 18.1916Z"
    />
</svg>
