<svg aria-hidden="true" viewBox="0 0 16 17" fill="none" xmlns="http://www.w3.org/2000/svg">
    <path fill="currentColor"
          fill-rule="evenodd"
          clip-rule="evenodd"
          d="M14.3996 6.89987C14.3998 7.6496 14.2244 8.38897 13.8874 9.0587C13.5505 9.72844 13.0613 10.3099 12.4591 10.7566C11.8569 11.2032 11.1585 11.5026 10.4198 11.6307C9.68106 11.7588 8.92261 11.7121 8.20521 11.4943L7.99961 11.6999L7.19961 12.4999L6.39961 13.2999H4.79961V14.8999H1.59961V11.6999L5.00521 8.29427C4.80557 7.63428 4.75046 6.93902 4.84364 6.25582C4.93683 5.57262 5.17611 4.91752 5.5452 4.3351C5.9143 3.75268 6.40454 3.25662 6.98256 2.88068C7.56059 2.50474 8.21282 2.25775 8.89487 2.15651C9.57692 2.05527 10.2728 2.10217 10.9351 2.29401C11.5974 2.48585 12.2106 2.81813 12.7329 3.26824C13.2553 3.71834 13.6745 4.2757 13.9621 4.90238C14.2497 5.52906 14.3989 6.21034 14.3996 6.89987V6.89987ZM9.59961 3.69987C9.38744 3.69987 9.18395 3.78415 9.03392 3.93418C8.88389 4.08421 8.79961 4.28769 8.79961 4.49987C8.79961 4.71204 8.88389 4.91552 9.03392 5.06555C9.18395 5.21558 9.38744 5.29987 9.59961 5.29987C10.024 5.29987 10.4309 5.46844 10.731 5.76849C11.031 6.06855 11.1996 6.47552 11.1996 6.89987C11.1996 7.11204 11.2839 7.31552 11.4339 7.46555C11.584 7.61558 11.7874 7.69987 11.9996 7.69987C12.2118 7.69987 12.4153 7.61558 12.5653 7.46555C12.7153 7.31552 12.7996 7.11204 12.7996 6.89987C12.7996 6.05117 12.4625 5.23724 11.8624 4.63712C11.2622 4.03701 10.4483 3.69987 9.59961 3.69987Z"
    />
</svg>
