<svg aria-hidden="true" viewBox="0 0 16 17" fill="none" xmlns="http://www.w3.org/2000/svg">
    <path fill="currentColor"
          d="M1.60254 5.20715L8.00014 8.40555L14.3977 5.20715C14.3741 4.79951 14.1954 4.41634 13.8984 4.13613C13.6014 3.85592 13.2085 3.69988 12.8001 3.69995H3.20014C2.79181 3.69988 2.3989 3.85592 2.10188 4.13613C1.80487 4.41634 1.62622 4.79951 1.60254 5.20715V5.20715Z"
    />
    <path fill="currentColor"
          d="M14.4001 6.99438L8.0001 10.1944L1.6001 6.99438V11.7C1.6001 12.1243 1.76867 12.5313 2.06873 12.8314C2.36878 13.1314 2.77575 13.3 3.2001 13.3H12.8001C13.2244 13.3 13.6314 13.1314 13.9315 12.8314C14.2315 12.5313 14.4001 12.1243 14.4001 11.7V6.99438Z"
    />
</svg>
