<svg aria-hidden="true" width="14" height="14" viewBox="0 0 14 14" fill="none" xmlns="http://www.w3.org/2000/svg">
    <path fill="currentColor"
          d="M7.00033 1.16602C10.2221 1.16602 12.8337 3.7776 12.8337 6.99935C12.8337 10.2211 10.2221 12.8327 7.00033 12.8327C3.77858 12.8327 1.16699 10.2211 1.16699 6.99935C1.16699 3.7776 3.77858 1.16602 7.00033 1.16602ZM7.00033 3.49935C6.84562 3.49935 6.69724 3.56081 6.58785 3.6702C6.47845 3.7796 6.41699 3.92797 6.41699 4.08268V6.99935C6.41703 7.15405 6.47851 7.3024 6.58791 7.41177L8.33791 9.16177C8.44793 9.26802 8.59528 9.32682 8.74823 9.32549C8.90117 9.32416 9.04748 9.26282 9.15564 9.15466C9.26379 9.04651 9.32514 8.9002 9.32647 8.74725C9.3278 8.5943 9.269 8.44695 9.16274 8.33693L7.58366 6.75785V4.08268C7.58366 3.92797 7.5222 3.7796 7.4128 3.6702C7.30341 3.56081 7.15504 3.49935 7.00033 3.49935Z"
    />
</svg>
