<svg xmlns="http://www.w3.org/2000/svg" width="16" height="16" viewBox="0 0 16 16" fill="none">
    <path fill-rule="evenodd" clip-rule="evenodd" d="M9.14286 3.42857C9.14286 4.33789 8.78163 5.20996 8.13865 5.85294C7.49567 6.49592 6.6236 6.85714 5.71429 6.85714C4.80497 6.85714 3.9329 6.49592 3.28992 5.85294C2.64694 5.20996 2.28571 4.33789 2.28571 3.42857C2.28571 2.51926 2.64694 1.64719 3.28992 1.00421C3.9329 0.361223 4.80497 0 5.71429 0C6.6236 0 7.49567 0.361223 8.13865 1.00421C8.78163 1.64719 9.14286 2.51926 9.14286 3.42857ZM10.7497 7.42857C10.5982 7.42857 10.4528 7.48878 10.3457 7.59594C10.2385 7.7031 10.1783 7.84845 10.1783 8V10.1783H8C7.84845 10.1783 7.7031 10.2385 7.59594 10.3457C7.48878 10.4528 7.42857 10.5982 7.42857 10.7497V12.6069C7.42857 12.7584 7.48878 12.9038 7.59594 13.0109C7.7031 13.1181 7.84845 13.1783 8 13.1783H10.1783V15.4286C10.1783 15.5801 10.2385 15.7255 10.3457 15.8326C10.4528 15.9398 10.5982 16 10.7497 16H12.6069C12.7584 16 12.9038 15.9398 13.0109 15.8326C13.1181 15.7255 13.1783 15.5801 13.1783 15.4286V13.1783H15.4286C15.5801 13.1783 15.7255 13.1181 15.8326 13.0109C15.9398 12.9038 16 12.7584 16 12.6069V10.7497C16 10.5982 15.9398 10.4528 15.8326 10.3457C15.7255 10.2385 15.5801 10.1783 15.4286 10.1783H13.1783V8C13.1783 7.84845 13.1181 7.7031 13.0109 7.59594C12.9038 7.48878 12.7584 7.42857 12.6069 7.42857H10.7497ZM5.71429 8C6.7074 7.99957 7.68347 8.25796 8.54629 8.74971H8C7.46957 8.74971 6.96086 8.96043 6.58579 9.3355C6.21071 9.71057 6 10.2193 6 10.7497V12.6069C6 13.3109 6.36343 13.9291 6.912 14.2857H0.571429C0.419876 14.2857 0.274531 14.2255 0.167368 14.1183C0.0602039 14.0112 0 13.8658 0 13.7143C0 12.1988 0.602039 10.7453 1.67368 9.67368C2.74531 8.60204 4.19876 8 5.71429 8Z" fill="#697282"/>
</svg>
