<svg aria-hidden="true" viewBox="0 0 14 14" fill="none" xmlns="http://www.w3.org/2000/svg">
    <g clip-path="url(#clip0_979_2106)">
        <path stroke="currentColor"
              stroke-linecap="round"
              stroke-linejoin="round"
              d="M3.49984 5.24935V1.16602H10.4998V5.24935M3.49984 10.4993H2.33317C2.02375 10.4993 1.72701 10.3764 1.50821 10.1576C1.28942 9.93885 1.1665 9.6421 1.1665 9.33268V6.41602C1.1665 6.1066 1.28942 5.80985 1.50821 5.59106C1.72701 5.37227 2.02375 5.24935 2.33317 5.24935H11.6665C11.9759 5.24935 12.2727 5.37227 12.4915 5.59106C12.7103 5.80985 12.8332 6.1066 12.8332 6.41602V9.33268C12.8332 9.6421 12.7103 9.93885 12.4915 10.1576C12.2727 10.3764 11.9759 10.4993 11.6665 10.4993H10.4998M3.49984 8.16602H10.4998V12.8327H3.49984V8.16602Z"
        />
    </g>
    <defs>
        <clipPath id="clip0_979_2106">
            <rect width="14" height="14" fill="white"/>
        </clipPath>
    </defs>
</svg>
