<svg aria-hidden="true" viewBox="0 0 16 16" fill="none" xmlns="http://www.w3.org/2000/svg">
    <path d="M12.9463 10.0006H10.0003Z" fill="currentColor"/>
    <path stroke="currentColor"
          stroke-linecap="round"
          stroke-linejoin="round"
          d="M2.66699 2.66727V6.0006H3.05499M3.05499 6.0006C3.49756 4.90602 4.29078 3.98921 5.31034 3.39384C6.32991 2.79848 7.51819 2.55821 8.68897 2.7107C9.85975 2.86318 10.9468 3.3998 11.7799 4.23645C12.613 5.07311 13.1449 6.16251 13.2923 7.33394M3.05499 6.0006H6.00033M13.3337 13.3339V10.0006H12.9463M12.9463 10.0006C12.5031 11.0945 11.7097 12.0106 10.6902 12.6055C9.67075 13.2003 8.48282 13.4403 7.31239 13.2879C6.14197 13.1354 5.05512 12.5992 4.22201 11.7631C3.38891 10.927 2.85656 9.83823 2.70833 8.66727M12.9463 10.0006H10.0003"
    />
</svg>
