<svg aria-hidden="true" viewBox="0 0 16 17" fill="none" xmlns="http://www.w3.org/2000/svg">
    <path fill="currentColor"
          d="M6.42206 12.325C5.52544 12.325 4.64896 12.0259 3.90345 11.4655C3.15793 10.9051 2.57688 10.1086 2.23376 9.17668C1.89064 8.24478 1.80086 7.21934 1.97578 6.23004C2.1507 5.24074 2.58247 4.332 3.21647 3.61876C3.85048 2.90551 4.65825 2.41978 5.53764 2.223C6.41703 2.02621 7.32854 2.12721 8.15691 2.51322C8.98528 2.89922 9.6933 3.5529 10.1914 4.39159C10.6896 5.23028 10.9554 6.21632 10.9554 7.225C10.9541 8.57714 10.476 9.87346 9.62616 10.8296C8.77627 11.7857 7.62397 12.3235 6.42206 12.325ZM6.42206 3.4C5.7496 3.4 5.09223 3.62433 4.5331 4.04463C3.97397 4.46493 3.53817 5.06231 3.28083 5.76124C3.02349 6.46016 2.95616 7.22924 3.08735 7.97122C3.21854 8.7132 3.54236 9.39475 4.01787 9.92968C4.49337 10.4646 5.0992 10.8289 5.75875 10.9765C6.41829 11.1241 7.10192 11.0483 7.7232 10.7588C8.34447 10.4693 8.87549 9.97907 9.24909 9.35005C9.62269 8.72104 9.8221 7.98151 9.8221 7.225C9.8212 6.21086 9.46269 5.23854 8.82526 4.52144C8.18782 3.80433 7.32353 3.40101 6.42206 3.4Z"

    />
    <path fill="currentColor"
          d="M12.6555 14.875C12.5052 14.875 12.3611 14.8078 12.2548 14.6882L9.98812 12.1382C9.8849 12.018 9.82778 11.8569 9.82907 11.6898C9.83036 11.5226 9.88996 11.3628 9.99502 11.2446C10.1001 11.1264 10.2422 11.0593 10.3908 11.0579C10.5394 11.0564 10.6825 11.1207 10.7894 11.2368L13.0561 13.7868C13.1353 13.8759 13.1893 13.9895 13.2111 14.1132C13.233 14.2368 13.2218 14.365 13.1789 14.4814C13.136 14.5979 13.0634 14.6975 12.9702 14.7675C12.877 14.8376 12.7675 14.875 12.6555 14.875Z"
    />
</svg>
