<svg aria-hidden="true"
     xmlns="http://www.w3.org/2000/svg"
     width="40"
     height="40"
     viewBox="0 0 40 40"
     fill="none"
>
    <path stroke="currentColor"
          stroke-width="4"
          stroke-linecap="round"
          stroke-linejoin="round"
          d="M10.0026 10.0026H10.0193M10.0026 30.0026H10.0193M6.66927 3.33594H33.3359C35.1769 3.33594 36.6693 4.82832 36.6693 6.66927V13.3359C36.6693 15.1769 35.1769 16.6693 33.3359 16.6693H6.66927C4.82832 16.6693 3.33594 15.1769 3.33594 13.3359V6.66927C3.33594 4.82832 4.82832 3.33594 6.66927 3.33594ZM6.66927 23.3359H33.3359C35.1769 23.3359 36.6693 24.8283 36.6693 26.6693V33.3359C36.6693 35.1769 35.1769 36.6693 33.3359 36.6693H6.66927C4.82832 36.6693 3.33594 35.1769 3.33594 33.3359V26.6693C3.33594 24.8283 4.82832 23.3359 6.66927 23.3359Z"
    />
</svg>

