<svg aria-hidden="true" viewBox="0 0 18 19" fill="none" xmlns="http://www.w3.org/2000/svg">
    <path fill="currentColor"
          d="M6.93789 17L6.63789 14.6C6.47539 14.5375 6.32227 14.4625 6.17852 14.375C6.03477 14.2875 5.89414 14.1938 5.75664 14.0938L3.52539 15.0312L1.46289 11.4688L3.39414 10.0063C3.38164 9.91875 3.37539 9.83438 3.37539 9.75313V9.24688C3.37539 9.16563 3.38164 9.08125 3.39414 8.99375L1.46289 7.53125L3.52539 3.96875L5.75664 4.90625C5.89414 4.80625 6.03789 4.7125 6.18789 4.625C6.33789 4.5375 6.48789 4.4625 6.63789 4.4L6.93789 2H11.0629L11.3629 4.4C11.5254 4.4625 11.6785 4.5375 11.8223 4.625C11.966 4.7125 12.1066 4.80625 12.2441 4.90625L14.4754 3.96875L16.5379 7.53125L14.6066 8.99375C14.6191 9.08125 14.6254 9.16563 14.6254 9.24688V9.75313C14.6254 9.83438 14.6129 9.91875 14.5879 10.0063L16.5191 11.4688L14.4566 15.0312L12.2441 14.0938C12.1066 14.1938 11.9629 14.2875 11.8129 14.375C11.6629 14.4625 11.5129 14.5375 11.3629 14.6L11.0629 17H6.93789ZM8.25039 15.5H9.73164L9.99414 13.5125C10.3816 13.4125 10.741 13.2656 11.0723 13.0719C11.4035 12.8781 11.7066 12.6437 11.9816 12.3687L13.8379 13.1375L14.5691 11.8625L12.9566 10.6438C13.0191 10.4688 13.0629 10.2844 13.0879 10.0906C13.1129 9.89688 13.1254 9.7 13.1254 9.5C13.1254 9.3 13.1129 9.10313 13.0879 8.90938C13.0629 8.71563 13.0191 8.53125 12.9566 8.35625L14.5691 7.1375L13.8379 5.8625L11.9816 6.65C11.7066 6.3625 11.4035 6.12188 11.0723 5.92813C10.741 5.73438 10.3816 5.5875 9.99414 5.4875L9.75039 3.5H8.26914L8.00664 5.4875C7.61914 5.5875 7.25977 5.73438 6.92852 5.92813C6.59727 6.12188 6.29414 6.35625 6.01914 6.63125L4.16289 5.8625L3.43164 7.1375L5.04414 8.3375C4.98164 8.525 4.93789 8.7125 4.91289 8.9C4.88789 9.0875 4.87539 9.2875 4.87539 9.5C4.87539 9.7 4.88789 9.89375 4.91289 10.0813C4.93789 10.2688 4.98164 10.4563 5.04414 10.6438L3.43164 11.8625L4.16289 13.1375L6.01914 12.35C6.29414 12.6375 6.59727 12.8781 6.92852 13.0719C7.25977 13.2656 7.61914 13.4125 8.00664 13.5125L8.25039 15.5ZM9.03789 12.125C9.76289 12.125 10.3816 11.8688 10.8941 11.3563C11.4066 10.8438 11.6629 10.225 11.6629 9.5C11.6629 8.775 11.4066 8.15625 10.8941 7.64375C10.3816 7.13125 9.76289 6.875 9.03789 6.875C8.30039 6.875 7.67852 7.13125 7.17227 7.64375C6.66602 8.15625 6.41289 8.775 6.41289 9.5C6.41289 10.225 6.66602 10.8438 7.17227 11.3563C7.67852 11.8688 8.30039 12.125 9.03789 12.125Z"
    />
</svg>
