<svg xmlns="http://www.w3.org/2000/svg" width="19" height="19" viewBox="0 0 19 19" fill="none">
    <path d="M13.1417 8.61342L12.0176 7.48926L8.6609 10.8538L6.98256 9.16759L5.8584 10.2918L8.6609 13.0943L13.1417 8.61342Z" fill="#697282"/>
    <path d="M15.0417 3.16699H3.95833C3.53841 3.16699 3.13568 3.33381 2.83875 3.63074C2.54181 3.92767 2.375 4.3304 2.375 4.75033V14.2503C2.375 14.6703 2.54181 15.073 2.83875 15.3699C3.13568 15.6668 3.53841 15.8337 3.95833 15.8337H15.0417C15.9125 15.8337 16.625 15.1212 16.625 14.2503V4.75033C16.625 4.3304 16.4582 3.92767 16.1613 3.63074C15.8643 3.33381 15.4616 3.16699 15.0417 3.16699ZM15.0417 14.2503H3.95833V6.33366H15.0417V14.2503Z" fill="#697282"/>
</svg>
